<svg width="31" height="31" viewBox="0 0 31 31" fill="none" xmlns="http://www.w3.org/2000/svg">
<path d="M15.5 0C6.9 0 0 6.9 0 15.5C0 24.1 6.9 31 15.5 31C24.1 31 31 24.1 31 15.5C31 6.9 24.1 0 15.5 0ZM15.5 28.4C8.4 28.4 2.6 22.6 2.6 15.5C2.6 8.4 8.4 2.6 15.5 2.6C22.6 2.6 28.4 8.4 28.4 15.5C28.4 22.6 22.6 28.4 15.5 28.4Z" fill="#149446"/>
<path d="M15.5 12.5C14.8 12.5 14.2 13.1 14.2 13.8V22.6C14.2 23.3 14.8 23.9 15.5 23.9C16.2 23.9 16.8 23.3 16.8 22.6V13.8C16.8 13.1 16.2 12.5 15.5 12.5Z" fill="#149446"/>
<path d="M15.5 7.20001C14.8 7.10001 14.2 7.80001 14.2 8.50001V8.70001C14.2 9.40001 14.7 9.90001 15.5 9.90001C16.2 9.90001 16.8 9.30001 16.8 8.60001V8.30001C16.8 7.70001 16.2 7.20001 15.5 7.20001Z" fill="#149446"/>
</svg>
