<svg width="121" height="26" viewBox="0 0 121 26" fill="none" xmlns="http://www.w3.org/2000/svg">
<path fill-rule="evenodd" clip-rule="evenodd" d="M102.428 10.1214H105.148V17.8286H107.681V10.1214H110.776V8.17143H101.771L102.428 10.1214ZM117.436 11.5143H114.247V8.17143H111.714V17.8286H117.436C119.218 17.8286 120.906 17.0857 120.906 14.6714C121 12.1643 119.312 11.5143 117.436 11.5143ZM117.154 15.8786H114.247V13.3714H117.154C118.374 13.3714 118.561 13.9286 118.561 14.6714C118.561 15.5071 118.467 15.8786 117.154 15.8786ZM38.3636 11.7929H34.893V10.1214H40.4271L41.0837 8.17143H32.3605V17.8286H38.3636C40.1457 17.8286 41.8341 17.2714 41.8341 14.7643C41.8341 12.35 40.1457 11.7929 38.3636 11.7929ZM38.0822 15.8786H34.893V13.65H38.0822C39.3016 13.65 39.4891 14.0214 39.4891 14.7643C39.4891 15.6 39.3016 15.8786 38.0822 15.8786ZM65.0023 15.8786H61.907V8.17143H59.4682V15.8786H56.3729V8.17143H53.9341V17.8286H67.3473V8.17143H64.9085V15.8786H65.0023ZM76.2581 11.8857H71.662V8.17143H69.1295V17.8286H71.662V13.8357H76.2581V17.8286H78.7907V8.17143H76.2581V11.8857ZM97.1752 8.07857H96.6124V7.15H94.3612V8.07857H93.7985C90.8907 8.07857 89.0147 9.75 89.0147 13C89.0147 15.2286 90.1403 17.8286 93.7047 17.9214C93.8923 17.9214 94.3612 17.9214 94.3612 17.9214V18.85H96.6124V17.9214C96.7062 17.9214 97.1752 17.9214 97.269 17.9214C100.833 17.8286 101.959 15.2286 101.959 13C101.959 9.75 100.083 8.17143 97.1752 8.07857ZM94.2674 15.8786C94.0798 15.8786 93.7985 15.8786 93.6109 15.8786C92.4853 15.8786 91.2659 15.6 91.2659 13C91.2659 10.1214 92.5791 10.1214 93.7047 10.0286H94.2674V15.8786V15.8786ZM97.1752 15.8786C96.9876 15.8786 96.8 15.8786 96.5186 15.8786V10.0286H97.0814C98.207 10.0286 99.5202 10.0286 99.5202 13C99.5202 15.6929 98.3008 15.8786 97.1752 15.8786ZM87.8891 10.1214L88.5457 8.17143H80.5729V17.8286H88.3581V15.8786H83.0116V13.7429H87.6078V11.7929H83.0116V10.0286H87.8891V10.1214ZM45.4922 8.17143L42.2093 17.8286H44.7419L45.4922 15.4143H49.5256L50.3698 17.8286H52.9961L49.5256 8.17143H45.4922ZM46.1488 13.4643L47.2744 9.93571H47.7434L48.869 13.4643H46.1488ZM13.1318 0C5.9093 0 0 5.85 0 13C0 20.15 5.9093 26 13.1318 26C20.3543 26 26.2636 20.15 26.2636 13C26.2636 5.85 20.3543 0 13.1318 0ZM13.1318 22.4714V15.4143L2.81395 6.77857C3.75194 5.2 5.06512 3.9 6.65969 2.87857L13.1318 8.35714V15.4143L23.4496 6.87143C24.4814 8.54286 25.0442 10.4929 25.138 12.5357L13.1318 22.4714Z" fill="#C7CACB"/>
</svg>
