<svg width="186" height="40" viewBox="0 0 186 40" fill="none" xmlns="http://www.w3.org/2000/svg">
<g clip-path="url(#clip0_161_269)">
<path fill-rule="evenodd" clip-rule="evenodd" d="M99.8888 18.8236H95.1527V7.05889H91.4929V19.0375H86.7568V7.05889H83.0971V22.0321H103.764V7.05889H100.104V18.8236H99.8888ZM117.326 12.6204H110.222V7.05889H106.347V22.0321H110.222V15.615H117.326V21.8182H121.201V6.84498H117.326V12.6204ZM157.583 9.83963H161.889V21.8182H165.764V9.83963H170.5V7.05889H156.722L157.583 9.83963ZM69.9652 7.05889L64.7985 22.0321H68.6735L69.9652 18.3958H76.2082L77.4999 22.0321H81.5902L76.2082 7.05889H69.9652ZM70.8263 15.1872L72.5485 9.83963H73.4096L75.1318 15.1872H70.8263ZM135.194 9.83963L136.271 6.84498H124V21.8182H136.055V18.8236H127.875V15.615H134.979V12.6204H127.875V9.83963H135.194ZM149.403 6.84498H148.542V5.34766H145.097V6.84498H144.236C139.715 6.84498 136.917 9.41183 136.917 14.3316C136.917 17.7541 138.639 21.8182 144.021 21.8182C144.236 21.8182 144.882 21.8182 145.097 21.8182V23.5295H148.542V22.0321C148.542 22.0321 149.403 22.0321 149.618 22.0321C155 21.8182 156.722 17.968 156.722 14.5455C156.722 9.41183 153.924 6.84498 149.403 6.84498ZM145.097 19.0375C144.667 19.0375 144.451 19.0375 144.021 19.0375C142.299 19.0375 140.361 18.6097 140.361 14.5455C140.361 10.0535 142.514 10.0535 144.021 10.0535C144.236 10.0535 144.882 10.0535 144.882 10.0535V19.0375H145.097ZM149.403 19.0375C149.187 19.0375 148.757 19.0375 148.326 19.0375V9.83963C148.326 9.83963 148.972 9.83963 149.187 9.83963C150.91 9.83963 152.847 9.83963 152.847 14.3316C153.062 18.6097 151.34 18.8236 149.403 19.0375ZM180.618 11.9787H175.667V7.05889H171.792V22.0321H180.618C183.417 22.0321 186 20.9626 186 17.1124C186 13.2621 183.632 11.9787 180.618 11.9787ZM180.187 18.8236H175.667V14.9733H180.187C182.125 14.9733 182.34 15.8289 182.34 16.8985C182.34 18.1819 182.125 18.8236 180.187 18.8236ZM58.986 12.6204H53.6041V9.83963H62.2152L63.2916 6.84498H49.9443V21.8182H59.2013C61.9999 21.8182 64.5832 20.9626 64.5832 17.1124C64.3679 13.476 61.7846 12.6204 58.986 12.6204ZM58.5554 18.8236H53.6041V15.4011H58.5554C60.4929 15.4011 60.7082 16.0428 60.7082 17.1124C60.7082 18.3958 60.4929 18.8236 58.5554 18.8236Z" fill="#D1D2D4"/>
<path d="M54.6809 34.6525V26.952H51.4517V34.6525H49.7295V25.2407H56.6184V34.6525H54.6809Z" fill="#D1D2D4"/>
<path d="M66.7363 34.6525V25.2407H72.9794V26.952H68.6738V29.091H72.3335V30.8022H68.6738V33.1552H72.9794V34.6525H66.7363Z" fill="#D1D2D4"/>
<path d="M86.5419 26.952V34.6525H84.6044V26.952H82.2363V25.2407H89.1252V26.952H86.5419Z" fill="#D1D2D4"/>
<path d="M102.257 25.2407C104.194 25.2407 105.486 26.5241 105.486 28.2354C105.486 29.9466 104.194 31.23 102.257 31.23H100.319V34.8664H98.3818V25.4546H102.257V25.2407ZM102.257 29.5188C103.118 29.5188 103.548 29.091 103.548 28.2354C103.548 27.3798 102.903 26.952 102.257 26.952H100.535V29.5188H102.257Z" fill="#D1D2D4"/>
<path d="M121.632 30.3744C121.632 31.6579 121.632 32.9413 120.771 33.7969C120.125 34.4386 119.264 34.8664 118.188 34.8664C117.111 34.8664 116.25 34.4386 115.604 33.7969C114.743 32.9413 114.743 31.444 114.743 30.3744V29.5188C114.743 27.5937 114.958 26.952 115.604 26.0964C116.25 25.4547 117.111 25.0269 118.188 25.0269C119.264 25.0269 120.125 25.4547 120.771 26.0964C121.417 26.7381 121.632 27.5937 121.632 29.3049V30.3744ZM119.264 27.3798C119.049 26.952 118.618 26.952 117.972 26.952C117.542 26.952 117.111 27.1659 116.681 27.3798C116.25 27.8076 116.25 28.6632 116.25 29.9466V30.3744C116.25 31.444 116.25 32.2996 116.681 32.7274C116.896 32.9413 117.326 33.1552 117.972 33.1552C118.403 33.1552 118.833 32.9413 119.264 32.7274C119.695 32.2996 119.695 31.8718 119.695 29.9466C119.91 28.2354 119.695 27.8076 119.264 27.3798Z" fill="#D1D2D4"/>
<path d="M135.194 26.952V34.6525H133.472V26.952H130.889V25.2407H137.778V26.952H135.194Z" fill="#D1D2D4"/>
<path d="M147.25 34.6525V25.2407H153.493V26.952H149.188V29.091H152.847V30.8022H149.188V33.1552H153.493V34.6525H147.25Z" fill="#D1D2D4"/>
<path d="M166.625 34.8664C165.549 34.8664 164.688 34.4386 164.042 33.7969C163.181 32.9413 163.181 31.6579 163.181 29.9466C163.181 28.2354 163.181 27.1659 164.042 26.0964C164.688 25.4547 165.549 25.0269 166.625 25.0269C168.347 25.0269 169.854 26.0964 170.07 28.0215H168.132C167.917 27.1659 167.486 26.7381 166.625 26.7381C166.195 26.7381 165.764 26.952 165.333 27.1659C164.903 27.5937 164.903 28.0215 164.903 29.9466C164.903 31.8718 164.903 32.2996 165.333 32.7274C165.549 32.9413 165.979 33.1552 166.625 33.1552C167.486 33.1552 168.132 32.5135 168.132 31.8718H170.07C169.639 33.7969 168.347 34.8664 166.625 34.8664Z" fill="#D1D2D4"/>
<path d="M183.201 26.952V34.6525H181.479V26.952H178.896V25.2407H185.784V26.952H183.201Z" fill="#D1D2D4"/>
<path fill-rule="evenodd" clip-rule="evenodd" d="M20.2361 0C9.04167 0 0 8.98396 0 20.107C0 31.2299 9.04167 40.2139 20.2361 40.2139C31.4306 40.2139 40.4722 31.2299 40.4722 20.107C40.2569 8.98396 31.2153 0 20.2361 0ZM38.75 20.107C38.75 30.3743 30.3542 38.5027 20.2361 38.5027C9.90278 38.5027 1.72222 30.1604 1.72222 20.107C1.72222 16.6845 2.79861 13.262 4.30556 10.6952L20.2361 23.9572V34.8663L38.75 19.2513C38.75 19.4652 38.75 19.6791 38.75 20.107ZM20.2361 23.7433V12.8342L10.3333 4.49198C13.1319 2.56684 16.5764 1.49733 20.2361 1.49733C26.9097 1.49733 32.7222 5.13369 36.1667 10.4813L20.2361 23.7433Z" fill="#D1D2D4"/>
</g>
<defs>
<clipPath id="clip0_161_269">
<rect width="186" height="40" fill="white"/>
</clipPath>
</defs>
</svg>
