<svg width="20" height="16" viewBox="0 0 20 16" fill="none" xmlns="http://www.w3.org/2000/svg">
<g clip-path="url(#clip0_37_317)">
<path d="M10.1 13.0998C12.5 13.0998 14.5 11.0998 14.5 8.6998C14.5 6.2998 12.5 4.2998 10.1 4.2998C7.69995 4.2998 5.69995 6.2998 5.69995 8.6998C5.69995 11.0998 7.69995 13.0998 10.1 13.0998ZM6.99995 8.5998C6.99995 6.8998 8.39995 5.4998 10.1 5.4998C11.8 5.4998 13.2 6.8998 13.2 8.5998C13.2 10.2998 11.8 11.6998 10.1 11.6998C8.39995 11.6998 6.99995 10.3998 6.99995 8.5998Z" fill="white"/>
<path d="M14.5 2.2L13.1 0H7.1L5.7 2.2H4.9V1.3H0.9V2.2H0V15.5H20V2.2H14.5ZM12.4 1.3L13.7 3.5H18.7V14.2H1.3V3.5H6.5L7.8 1.3H12.4Z" fill="white"/>
<path d="M16.6001 6.7002C17.2001 6.7002 17.6001 6.3002 17.6001 5.7002C17.6001 5.1002 17.2001 4.7002 16.6001 4.7002C16.0001 4.7002 15.6001 5.1002 15.6001 5.7002C15.6001 6.3002 16.1001 6.7002 16.6001 6.7002Z" fill="white"/>
</g>
<defs>
<clipPath id="clip0_37_317">
<rect width="20" height="15.5" fill="white"/>
</clipPath>
</defs>
</svg>
