<svg width="154" height="113" viewBox="0 0 154 113" fill="none" xmlns="http://www.w3.org/2000/svg">
<path fill-rule="evenodd" clip-rule="evenodd" d="M10.4772 28.1418H14.7829V50.0779H10.4772V28.1418V28.1418ZM20.9543 28.1418H25.26V50.0779H20.9543V28.1418V28.1418ZM15.7875 23.668H20.0932V50.0779H15.7875V23.668Z" fill="white"/>
<path fill-rule="evenodd" clip-rule="evenodd" d="M31.4315 14.8646H35.7372V25.3997L31.4315 29.7292V14.8646ZM0 14.8646H4.30569V29.8736L0 25.5441V14.8646ZM5.31034 9.66922H9.61603V35.2133L5.31034 30.8838V9.66922ZM14.9264 27.2759H10.6207V4.3295H14.9264V27.2759ZM15.7875 0H20.0932V22.802H15.7875V0ZM25.4035 27.2759H21.0979V4.3295H25.4035V27.2759ZM26.2647 9.66922H30.5704V30.7395L26.2647 35.069V9.66922Z" fill="white"/>
<path d="M57.8397 49.2121C57.2656 49.7894 56.2609 50.078 54.8257 50.078H49.9459C48.5107 50.078 47.506 49.7894 46.9319 49.2121C46.3578 48.6348 46.0708 47.9133 46.0708 46.7587V41.9963C46.0708 40.8418 46.3578 40.1202 46.9319 39.5429C47.506 38.9656 48.5107 38.677 49.9459 38.677H54.8257C56.2609 38.677 57.2656 38.9656 57.8397 39.5429C58.4138 40.1202 58.7008 40.8418 58.7008 41.852V46.6144C58.5573 47.9133 58.4138 48.7792 57.8397 49.2121ZM55.2563 43.2951C55.2563 42.7179 55.1127 42.2849 54.8257 41.9963C54.5387 41.7077 53.9646 41.5633 53.1034 41.5633H51.2376C50.3765 41.5633 49.9459 41.7077 49.6589 41.9963C49.3718 42.2849 49.2283 42.7179 49.2283 43.2951V45.8928C49.2283 46.4701 49.3718 46.9031 49.6589 47.1917C49.9459 47.4803 50.52 47.6246 51.2376 47.6246H53.1034C53.9646 47.6246 54.5387 47.4803 54.8257 47.1917C55.1127 46.9031 55.2563 46.4701 55.2563 45.8928V43.2951Z" fill="white"/>
<path d="M72.3355 49.2121C71.7614 49.7894 70.7568 50.078 69.3215 50.078H64.4418C63.0065 50.078 62.0019 49.7894 61.4278 49.2121C60.8537 48.6348 60.5667 47.9133 60.5667 46.7587V41.9963C60.5667 40.8418 60.8537 40.1202 61.4278 39.5429C62.0019 38.9656 63.0065 38.677 64.4418 38.677H69.3215C70.7568 38.677 71.7614 38.9656 72.3355 39.5429C72.9096 40.1202 73.1967 40.8418 73.1967 41.852V43.2951H69.8956C69.8956 42.7179 69.7521 42.2849 69.4651 41.9963C69.178 41.7077 68.6039 41.5633 67.7428 41.5633H65.877C65.0159 41.5633 64.5853 41.7077 64.2982 41.9963C64.0112 42.2849 63.8677 42.7179 63.8677 43.2951V45.8928C63.8677 46.4701 64.0112 46.9031 64.2982 47.1917C64.5853 47.4803 65.1594 47.6246 65.877 47.6246H67.7428C68.6039 47.6246 69.178 47.4803 69.4651 47.1917C69.7521 46.9031 69.8956 46.4701 69.8956 45.8928H73.1967V47.0474C73.1967 47.9133 72.9096 48.7792 72.3355 49.2121Z" fill="white"/>
<path d="M78.3635 50.078H75.0625V46.903V42.1405V38.9656H78.3635V43.1508H84.3915V38.9656H87.6925V42.1405V46.903V50.078H84.3915V45.7485H78.3635V50.078Z" fill="white"/>
<path d="M93.8639 45.7485H92.8592C92.8592 46.3258 93.0027 46.7587 93.2898 47.0474C93.5768 47.336 94.1509 47.4803 94.8685 47.4803H96.7343H102.045V50.078H98.1696H93.2898C91.8546 50.078 90.8499 49.7894 90.2758 49.2121C89.7017 48.6348 89.4147 47.9133 89.4147 46.7587V41.9963C89.4147 40.9861 89.7017 40.1202 90.2758 39.5429C90.8499 38.9656 91.8546 38.677 93.2898 38.677H98.1696H102.045V41.2747H96.7343H94.8685C94.0074 41.2747 93.5768 41.419 93.2898 41.7077C93.0027 41.9963 92.8592 42.4292 92.8592 43.0065H93.8639H102.188V45.6042H93.8639V45.7485Z" fill="white"/>
<path d="M127.735 41.419H123.286V38.9656H127.018H131.897H135.773V41.419H131.036V50.078H127.735V41.419Z" fill="white"/>
<path d="M120.272 40.986H115.105V38.9656H111.948V40.986H106.638C106.638 40.986 103.624 41.1303 103.624 44.4496C103.624 47.9132 106.638 47.9132 106.638 47.9132H111.948V50.078H115.249V47.9132H120.272C120.272 47.9132 123.286 47.9132 123.286 44.4496C123.286 41.1303 120.272 40.986 120.272 40.986ZM118.55 45.6041H115.249V43.2951H118.55C118.55 43.2951 119.698 43.1508 119.698 44.5939C119.698 45.7485 118.55 45.6041 118.55 45.6041ZM107.355 44.5939C107.355 43.1508 108.503 43.2951 108.503 43.2951H111.948V45.6041H108.647C108.503 45.6041 107.355 45.7485 107.355 44.5939Z" fill="white"/>
<path d="M43.2004 39.8315C42.7698 39.2542 41.7652 38.9656 40.1864 38.9656H31.4315V50.078H34.7325V46.1814H40.1864C41.6216 46.1814 42.6263 45.8928 43.2004 45.3155C43.7745 44.7382 44.0615 44.0167 44.0615 43.0064V42.1405C44.0615 41.1303 43.7745 40.2644 43.2004 39.8315ZM39.6123 43.728H34.7325V41.5633H39.6123C40.1864 41.5633 40.7605 41.9962 40.7605 42.7178C40.7605 43.1508 40.3299 43.728 39.6123 43.728Z" fill="white"/>
<path d="M149.838 46.903V46.0371C149.838 45.0269 149.551 44.161 148.977 43.5837C148.403 43.0064 147.398 42.7178 145.963 42.7178H140.652V38.9656H137.351V50.078H146.106C147.541 50.078 148.546 49.7893 149.12 49.2121C149.694 48.7791 149.838 47.9132 149.838 46.903ZM146.537 46.47C146.537 47.0473 146.106 47.6246 145.389 47.6246H140.652V45.3155H145.532C146.106 45.3155 146.537 45.8928 146.537 46.47Z" fill="white"/>
<path d="M152.852 66.2415H0V67.396H152.852V66.2415Z" fill="white"/>
<path fill-rule="evenodd" clip-rule="evenodd" d="M130.462 92.5071H133.907V102.465H137.064V92.5071H140.939V90.0537H129.458L130.462 92.5071ZM149.551 94.2389H145.532V90.0537H142.375V102.465H149.551C151.847 102.465 154 101.455 154 98.4241C154 95.1048 151.847 94.2389 149.551 94.2389ZM149.12 99.8672H145.389V96.6923H149.12C150.699 96.6923 150.842 97.4139 150.842 98.2798C150.986 99.4343 150.842 99.8672 149.12 99.8672ZM49.0848 94.6718H44.6356V92.5071H51.6682L52.5293 90.0537H41.4781V102.465H49.0848C51.3812 102.465 53.534 101.743 53.534 98.5684C53.534 95.3934 51.3812 94.6718 49.0848 94.6718ZM48.6542 99.8672H44.6356V96.9809H48.6542C50.233 96.9809 50.3765 97.4139 50.3765 98.4241C50.52 99.5786 50.3765 99.8672 48.6542 99.8672ZM82.9562 99.8672H78.9375V89.9094H75.9236V99.8672H71.9049V89.9094H68.8909V102.321H85.9702V89.9094H82.9562V99.8672ZM97.3085 94.6718H91.424V89.9094H88.2665V102.321H91.424V97.1252H97.3085V102.321H100.466V89.9094H97.3085V94.6718ZM123.717 89.9094H122.999V88.6105H120.129V89.9094H119.411C115.679 89.9094 113.383 92.0741 113.383 96.2593C113.383 99.1457 114.818 102.465 119.267 102.609C119.411 102.609 120.129 102.609 120.129 102.609V103.908H122.999V102.465C123.143 102.465 123.717 102.465 123.86 102.465C128.309 102.321 129.745 99.0013 129.745 96.115C129.745 92.0741 127.448 89.9094 123.717 89.9094ZM120.129 100.012C119.842 100.012 119.554 100.012 119.267 100.012C117.832 100.012 116.253 99.7229 116.253 96.2593C116.253 92.5071 117.976 92.5071 119.267 92.5071H119.985V100.012H120.129ZM123.86 100.012C123.573 100.012 123.286 100.012 122.999 100.012V92.3628H123.717C125.152 92.3628 126.731 92.3628 126.731 96.115C126.874 99.5786 125.295 99.8672 123.86 100.012ZM111.948 92.5071L112.809 90.0537H102.619V102.465H112.522V100.012H105.776V97.2695H111.661V94.8162H105.776V92.5071H111.948V92.5071ZM58.1267 89.9094L53.9646 102.321H57.2656L58.2702 99.1457H63.4371L64.4417 102.321H67.7428L63.2935 89.9094H58.1267V89.9094ZM58.9879 96.8366L60.4231 92.3628H60.9972L62.4324 96.8366H58.9879ZM17.0792 79.3743C7.89373 79.3743 0.430542 86.8787 0.430542 96.115C0.430542 105.351 7.89373 112.856 17.0792 112.856C26.2647 112.856 33.7278 105.351 33.7278 96.115C33.7278 86.8787 26.2647 79.3743 17.0792 79.3743ZM17.0792 108.382V99.29L4.01861 88.1776C5.31032 86.1572 6.88907 84.4254 8.89839 83.1265L17.0792 90.0537V99.1457L30.1398 88.0333C31.4315 90.198 32.1491 92.6514 32.2926 95.2491L17.0792 108.382Z" fill="white"/>
</svg>
