<svg width="148" height="158" viewBox="0 0 148 158" fill="none" xmlns="http://www.w3.org/2000/svg">
<g clip-path="url(#clip0_51_24)">
<path d="M19.5 158C14.9 158 11.2 154.3 11.2 149.7V68C11.2 66.9 12.1 66 13.3 66C14.4 66 15.4 66.9 15.4 68V149.7C15.4 152 17.3 153.9 19.6 153.9C21.9 153.9 23.8 152 23.8 149.7V103C23.8 101.9 24.7 100.9 25.9 100.9C27 100.9 28 101.8 28 103V149.7C27.8 154.3 24 158 19.5 158Z" fill="#333739"/>
<path d="M2.1 99.0001C0.9 99.0001 0 98.1001 0 96.9001V59.3001C0 56.5001 2 53.6001 4.6 52.6001L9.4 50.8001C12 49.8001 15.4 50.7001 17.2 52.8001L27.2 64.8001C27.9 65.7001 27.8 67.0001 26.9 67.7001C26 68.4001 24.7 68.3001 24 67.4001L14 55.4001C13.3 54.6001 11.8 54.2001 10.8 54.6001L6 56.4001C5 56.8001 4.1 58.1001 4.1 59.2001V96.8001C4.1 98.1001 3.2 99.0001 2.1 99.0001Z" fill="#333739"/>
<path d="M25.6999 52C19.0999 52 13.8999 44.4 13.8999 34.6C13.8999 28.1 19.1999 22.8 25.6999 22.8C32.1999 22.8 37.4999 28.1 37.4999 34.6C37.4999 44.2 32.1999 52 25.6999 52ZM25.6999 26.9C21.4999 26.9 17.9999 30.4 17.9999 34.6C17.9999 41.8 21.4999 47.9001 25.6999 47.9001C29.7999 47.9001 33.3999 41.7 33.3999 34.6C33.3999 30.4 29.8999 26.9 25.6999 26.9Z" fill="#333739"/>
<path d="M7.6 104.6C3.4 104.6 0 101.2 0 97C0 95.9 0.9 95 2.1 95C3.2 95 4.2 95.9 4.2 97C4.2 98.9 5.8 100.5 7.7 100.5C9.6 100.5 11.2 98.9 11.2 97C11.2 95.9 12.1 95 13.3 95C14.4 95 15.4 95.9 15.4 97C15.3 101.1 11.8 104.6 7.6 104.6Z" fill="#333739"/>
<path d="M31.9001 158C27.3001 158 23.6001 154.3 23.6001 149.7V103C23.6001 101.9 24.5001 100.9 25.7001 100.9C26.8001 100.9 27.8001 101.8 27.8001 103V149.7C27.8001 152 29.7001 153.9 32.0001 153.9C34.3001 153.9 36.2001 152 36.2001 149.7V68C36.2001 66.9 37.1001 66 38.3001 66C39.4001 66 40.4001 66.9 40.4001 68V149.7C40.2001 154.3 36.5001 158 31.9001 158Z" fill="#333739"/>
<path d="M49.3 99C48.2 99 47.2 98.1 47.2 96.9V59.3C47.2 58.2 46.3 56.9 45.3 56.5L40.5 54.7C39.5 54.3 38 54.7 37.3 55.5C36.6 56.4 35.3 56.5 34.4 55.8C33.5 55.1 33.4 53.8 34.1 52.9C35.9 50.8 39.3 49.9 41.9 50.9L46.7 52.7C49.3 53.7 51.3 56.6 51.3 59.4V97C51.4 98.1 50.5 99 49.3 99Z" fill="#333739"/>
<path d="M43.7999 104.6C39.5999 104.6 36.2 101.2 36.2 97C36.2 95.9 37.0999 95 38.2999 95C39.3999 95 40.4 95.9 40.4 97C40.4 98.9 42 100.5 43.9 100.5C45.8 100.5 47.4 98.9 47.4 97C47.4 95.9 48.3 95 49.5 95C50.7 95 51.5999 95.9 51.5999 97C51.3999 101.1 47.9999 104.6 43.7999 104.6Z" fill="#333739"/>
<path d="M130.4 149C134.5 149 137.9 145.6 137.9 141.5V67.6998C137.9 66.6998 137.1 65.7998 136 65.7998C135 65.7998 134.1 66.5998 134.1 67.6998V141.5C134.1 143.6 132.4 145.3 130.3 145.3C128.2 145.3 126.5 143.6 126.5 141.5V99.2998C126.5 98.2998 125.7 97.3998 124.6 97.3998C123.6 97.3998 122.7 98.1998 122.7 99.2998V141.4C123 145.6 126.3 149 130.4 149Z" fill="#333739"/>
<path d="M146.2 95.6999C147.2 95.6999 148.1 94.8999 148.1 93.7999V59.7999C148.1 57.2999 146.3 54.6999 143.9 53.7999L139.5 52.0999C137.1 51.1999 134 51.9999 132.4 53.9999L123.3 64.7999C122.6 65.5999 122.7 66.7999 123.5 67.3999C124.3 68.0999 125.5 67.9999 126.1 67.1999L135.2 56.3999C135.8 55.6999 137.2 55.2999 138.1 55.5999L142.5 57.2999C143.4 57.5999 144.3 58.8999 144.3 59.7999V93.7999C144.3 94.8999 145.1 95.6999 146.2 95.6999Z" fill="#333739"/>
<path d="M114.1 37.5999C114.1 31.6999 118.9 26.8999 124.8 26.8999C130.7 26.8999 135.5 31.6999 135.5 37.5999C135.5 46.3999 130.8 53.2999 124.8 53.2999C118.9 53.2999 114.1 46.1999 114.1 37.5999ZM117.9 37.5999C117.9 43.9999 121.2 49.5999 124.9 49.5999C128.7 49.5999 131.9 44.0999 131.9 37.5999C131.9 33.7999 128.8 30.5999 124.9 30.5999C121 30.5999 117.9 33.6999 117.9 37.5999Z" fill="#333739"/>
<path d="M141.1 100.7C144.9 100.7 148 97.5999 148 93.7999C148 92.7999 147.2 91.8999 146.1 91.8999C145.1 91.8999 144.2 92.6999 144.2 93.7999C144.2 95.5999 142.8 96.9999 141 96.9999C139.3 96.9999 137.8 95.5999 137.8 93.7999C137.8 92.7999 137 91.8999 135.9 91.8999C134.9 91.8999 134 92.6999 134 93.7999C134.2 97.5999 137.3 100.7 141.1 100.7Z" fill="#333739"/>
<path d="M119.2 149C123.3 149 126.7 145.6 126.7 141.5V99.2998C126.7 98.2998 125.9 97.3998 124.8 97.3998C123.8 97.3998 122.9 98.1998 122.9 99.2998V141.4C122.9 143.5 121.2 145.2 119.1 145.2C117 145.2 115.3 143.5 115.3 141.4V67.6998C115.3 66.6998 114.5 65.7998 113.4 65.7998C112.4 65.7998 111.5 66.5998 111.5 67.6998V141.5C111.7 145.6 115 149 119.2 149Z" fill="#333739"/>
<path d="M103.5 95.6998C104.5 95.6998 105.4 94.8998 105.4 93.7998V59.7998C105.4 58.7998 106.3 57.5998 107.2 57.2998L111.6 55.5998C112.5 55.2998 113.9 55.5998 114.5 56.3998C115.2 57.1998 116.3 57.2998 117.1 56.5998C117.9 55.8998 118 54.7998 117.3 53.9998C115.7 52.0998 112.6 51.2998 110.2 52.0998L105.8 53.7998C103.4 54.6998 101.6 57.2998 101.6 59.7998V93.7998C101.6 94.8998 102.4 95.6998 103.5 95.6998Z" fill="#333739"/>
<path d="M108.5 100.7C112.3 100.7 115.4 97.5999 115.4 93.7999C115.4 92.7999 114.6 91.8999 113.5 91.8999C112.5 91.8999 111.6 92.6999 111.6 93.7999C111.6 95.5999 110.2 96.9999 108.4 96.9999C106.7 96.9999 105.2 95.5999 105.2 93.7999C105.2 92.7999 104.4 91.8999 103.3 91.8999C102.3 91.8999 101.4 92.6999 101.4 93.7999C101.6 97.5999 104.7 100.7 108.5 100.7Z" fill="#333739"/>
<path d="M87.6 61.4C87.1 61.4 86.5 61.2 86.1 60.8L81.6 56.2C80.8 55.4 80.8 54.1 81.6 53.3C82.4 52.5 83.7 52.5 84.5 53.3L89 57.9C89.8 58.7 89.8 60 89 60.8C88.6 61.2 88.1 61.4 87.6 61.4Z" fill="#D61F74"/>
<path d="M83.1001 65.9C82.6001 65.9 82.1001 65.7 81.7001 65.3C80.9001 64.5 80.9001 63.2 81.7001 62.4L86.2001 57.8C87.0001 57 88.3001 57 89.1001 57.8C89.9001 58.6 89.9001 59.9 89.1001 60.7L84.6001 65.3C84.1001 65.7 83.6001 65.9 83.1001 65.9Z" fill="#D61F74"/>
<path d="M65.1001 61.4C64.6001 61.4 64.1001 61.2 63.7001 60.8C62.9001 60 62.9001 58.7 63.7001 57.9L68.2001 53.3C69.0001 52.5 70.3001 52.5 71.1001 53.3C71.9001 54.1 71.9001 55.4 71.1001 56.2L66.6001 60.8C66.1001 61.2 65.6001 61.4 65.1001 61.4Z" fill="#D61F74"/>
<path d="M69.6 65.9C69.1 65.9 68.5 65.7 68.1 65.3L63.6 60.7C62.8 59.9 62.8 58.6 63.6 57.8C64.4 57 65.7 57 66.5 57.8L71 62.4C71.8 63.2 71.8 64.5 71 65.3C70.6 65.7 70.1 65.9 69.6 65.9Z" fill="#D61F74"/>
<path d="M79.0001 61.4H73.7001C72.6001 61.4 71.6001 60.4999 71.6001 59.2999C71.6001 58.1999 72.5001 57.2 73.7001 57.2H79.0001C80.1001 57.2 81.1001 58.0999 81.1001 59.2999C81.0001 60.4999 80.1001 61.4 79.0001 61.4Z" fill="#D61F74"/>
<path d="M76.2999 0C63.3999 0 52.8999 10.5 52.8999 23.5C52.8999 36.5 63.3999 46.9 76.3999 46.9C89.3999 46.9 99.8999 36.4 99.8999 23.5C99.8999 10.6 89.1999 0 76.2999 0ZM95.1999 23.5C95.1999 33.9 86.6999 42.3 76.3999 42.3C66.0999 42.3 57.5999 33.9 57.5999 23.5C57.5999 13.1 65.8999 4.6 76.2999 4.6C86.6999 4.6 95.1999 13.1 95.1999 23.5Z" fill="#D61F74"/>
<path d="M78.6 22.5001V9.4001C78.6 8.1001 77.6 7.1001 76.3 7.1001C75 7.1001 74 8.1001 74 9.4001V23.5001C74 24.1001 74.2 24.7001 74.7 25.1001L84.4 34.8001C84.8 35.2001 85.4 35.5001 86 35.5001C86.6 35.5001 87.2 35.3001 87.6 34.9001L87.8 34.8001V34.7001C88.5 33.8001 88.5 32.5001 87.6 31.6001L78.6 22.5001Z" fill="#D61F74"/>
</g>
<defs>
<clipPath id="clip0_51_24">
<rect width="148" height="158" fill="white"/>
</clipPath>
</defs>
</svg>
