<svg width="133" height="138" viewBox="0 0 133 138" fill="none" xmlns="http://www.w3.org/2000/svg">
<g clip-path="url(#clip0_51_103)">
<path d="M67.5999 21.5001C66.9999 21.5001 66.0999 21.1001 65.6999 20.7001C65.2999 20.3001 64.8999 19.4001 64.8999 18.8001C64.8999 18.2001 65.2999 17.3001 65.6999 16.9001C66.0999 16.5001 66.9999 16.1001 67.5999 16.1001C68.1999 16.1001 69.0999 16.5001 69.4999 16.9001C69.8999 17.3001 70.2999 18.2001 70.2999 18.7001C70.2999 19.3001 69.8999 20.2001 69.4999 20.6001C68.9999 21.2001 68.0999 21.5001 67.5999 21.5001Z" fill="#D61F74"/>
<path d="M72.9999 16.1C72.4999 16.1 71.4999 15.7 71.0999 15.3C70.0999 14.3 70.0999 12.6 71.0999 11.6C71.4999 11.2 72.3999 10.8 72.9999 10.8C73.6999 10.8 74.3999 11.1 74.8999 11.6C75.8999 12.7 75.8999 14.3 74.8999 15.3C74.4999 15.7 73.4999 16.1 72.9999 16.1Z" fill="#D61F74"/>
<path d="M78.4 10.6999C77.8 10.6999 76.9 10.2999 76.5 9.8999C75.5 8.8999 75.5 7.1999 76.5 6.1999C76.9 5.7999 77.8 5.3999 78.4 5.3999C79.1 5.3999 79.7 5.6999 80.2 6.0999C81.3 7.1999 81.3 8.7999 80.2 9.8999C79.9 10.2999 79 10.6999 78.4 10.6999Z" fill="#D61F74"/>
<path d="M83.7999 5.3C83.1999 5.3 82.2999 4.9 81.8999 4.5C81.4999 4.1 81.0999 3.2 81.0999 2.6C81.0999 2.1 81.4999 1.2 81.8999 0.8C82.2999 0.4 83.2999 0 83.7999 0C84.4999 0 85.1999 0.3 85.6999 0.8C86.0999 1.2 86.4999 2.1 86.4999 2.7C86.4999 3.4 86.1999 4.1 85.6999 4.6C85.2999 4.9 84.3999 5.3 83.7999 5.3Z" fill="#D61F74"/>
<path d="M72.9998 27.0001C72.3998 27.0001 71.4998 26.6001 71.0998 26.2001C70.6998 25.8001 70.2998 24.9001 70.2998 24.3001C70.2998 23.7001 70.6998 22.8001 71.0998 22.4001C71.4998 22.0001 72.3998 21.6001 72.9998 21.6001C73.6998 21.6001 74.3998 21.9001 74.8998 22.4001C75.8998 23.5001 75.8998 25.1001 74.8998 26.1001C74.4998 26.6001 73.4998 27.0001 72.9998 27.0001Z" fill="#D61F74"/>
<path d="M78.4 21.5001C77.8 21.5001 76.9 21.1001 76.5 20.7001C76.1 20.3001 75.7 19.4001 75.7 18.8001C75.7 18.2001 76.1 17.3001 76.5 16.9001C76.9 16.5001 77.8 16.1001 78.4 16.1001C79 16.1001 79.9 16.5001 80.3 16.9001C81.3 17.9001 81.3 19.6001 80.3 20.6001C79.9 21.2001 79 21.5001 78.4 21.5001Z" fill="#D61F74"/>
<path d="M83.7999 16.1C83.1999 16.1 82.2999 15.7 81.8999 15.3C80.8999 14.3 80.8999 12.6 81.8999 11.6C82.2999 11.2 83.1999 10.8 83.7999 10.8C84.4999 10.8 85.0999 11.1 85.5999 11.5C85.9999 11.9 86.3999 12.8 86.3999 13.4C86.3999 14.1 86.0999 14.8 85.5999 15.3C85.2999 15.8 84.3999 16.1 83.7999 16.1Z" fill="#D61F74"/>
<path d="M89.1998 10.6999C88.5998 10.6999 87.6998 10.2999 87.2998 9.8999C86.2998 8.8999 86.2998 7.1999 87.2998 6.1999C87.6998 5.7999 88.5998 5.3999 89.1998 5.3999C89.8998 5.3999 90.4998 5.6999 90.9998 6.0999C92.0998 7.1999 92.0998 8.7999 90.9998 9.8999C90.6998 10.2999 89.7998 10.6999 89.1998 10.6999Z" fill="#D61F74"/>
<path d="M78.4 32.4001C77.8 32.4001 76.9 32.0001 76.5 31.6001C75.5 30.6001 75.5 28.9001 76.5 27.9001C76.9 27.5001 77.8 27.1001 78.4 27.1001C79.1 27.1001 79.8 27.4001 80.3 27.9001C81.3 29.0001 81.3 30.6001 80.3 31.6001C79.9 32.0001 79 32.4001 78.4 32.4001Z" fill="#D61F74"/>
<path d="M83.7999 27C83.1999 27 82.2999 26.6 81.8999 26.2C80.8999 25.1 80.8999 23.5 81.8999 22.5C82.2999 22.1 83.1999 21.7 83.7999 21.7C84.4999 21.7 85.1999 22 85.6999 22.5C86.6999 23.6 86.6999 25.2 85.6999 26.2C85.2999 26.6 84.3999 27 83.7999 27Z" fill="#D61F74"/>
<path d="M89.2 21.5C88.7 21.5 87.8 21.0999 87.4 20.7999C86.3 19.6999 86.4 18 87.4 17C87.8 16.6 88.7 16.2 89.3 16.2C90 16.2 90.7 16.5 91.2 17C91.6 17.4 92 18.3 92 18.9C92 19.4 91.6 20.3999 91.2 20.7999C90.7 21.1999 89.8 21.5 89.2 21.5Z" fill="#D61F74"/>
<path d="M83.7999 37.7999C83.1999 37.7999 82.2999 37.3999 81.8999 36.9999C81.4999 36.5999 81.0999 35.6999 81.0999 35.0999C81.0999 34.4999 81.4999 33.5999 81.8999 33.1999C82.2999 32.7999 83.1999 32.3999 83.7999 32.3999C84.4999 32.3999 85.1999 32.6999 85.6999 33.1999C86.0999 33.5999 86.4999 34.4999 86.4999 34.9999C86.4999 35.5999 86.0999 36.4999 85.6999 36.8999C85.2999 37.3999 84.3999 37.7999 83.7999 37.7999Z" fill="#D61F74"/>
<path d="M89.1998 32.4001C88.5998 32.4001 87.6998 32.0001 87.2998 31.6001C86.2998 30.6001 86.2998 28.9001 87.2998 27.9001C87.6998 27.5001 88.5998 27.1001 89.1998 27.1001C89.8998 27.1001 90.5998 27.4001 91.0998 27.9001C92.0998 28.9001 92.0998 30.6001 91.0998 31.6001C90.6998 32.0001 89.7998 32.4001 89.1998 32.4001Z" fill="#D61F74"/>
<path d="M39 37H24.7C23.5 37 22.6 36.1 22.6 34.9V32.2C22.6 29.8 21.1 27.8 18.8 27.1C18.7 27.1 18.6 27 18.5 27C15.3 25.9 13.2 23 13.2 19.7C13.2 15.4 16.7 12 21 12H58.7999C59.9999 12 60.9 12.9 60.9 14.1V23.9C60.9 25.1 59.9999 26 58.7999 26H47.2999C43.8999 26 41.0999 28.8 41.0999 32.3V35C41.0999 36 40.2 37 39 37ZM26.8 32.8H36.9V32.2C36.9 26.4 41.5999 21.8 47.2999 21.8H56.7V16.2H21C19 16.2 17.4 17.8 17.4 19.8C17.4 21.4 18.4 22.7 19.9 23.2C20 23.2 20.1 23.3 20.2 23.3C24.1 24.6 26.8 28.2 26.8 32.3V32.8V32.8Z" fill="#333739"/>
<path d="M52.2999 25.8999C51.0999 25.8999 50.2 24.9999 50.2 23.7999V13.9999C50.2 12.7999 51.0999 11.8999 52.2999 11.8999C53.4999 11.8999 54.4 12.7999 54.4 13.9999V23.7999C54.4 24.9999 53.4999 25.8999 52.2999 25.8999Z" fill="#333739"/>
<path d="M40.6999 45.5999H22.9999C21.7999 45.5999 20.8999 44.7 20.8999 43.5V34.7999C20.8999 33.5999 21.7999 32.7 22.9999 32.7H40.6999C41.8999 32.7 42.7999 33.5999 42.7999 34.7999V43.5C42.7999 44.7 41.8999 45.5999 40.6999 45.5999ZM25.0999 41.4H38.5999V37H25.0999V41.4Z" fill="#333739"/>
<path d="M57.4 137.9H8.8C8 137.9 7.3 137.5 7 136.8C6.6 136.3 0 123.7 0 104.3C0 82.6 11.3 61.2 18.8 47C19.6 45.4 20.4 44 21.1 42.6C21.5 41.9 22.2 41.5 23 41.5H40.7C43.1 41.5 45.1 43.5 45.1 45.9C45.1 47.9 43.7 49.7 41.8 50.1H41.7C40.8 53.6 38.2 63.2 37.5 65.5C36.7 68.2 37.1 70.6 41.3 73.7C41.8 74.1 42.6 74.6 43.5 75.2C50.2 79.4 64 88.1 64 110.7C64 126.8 59.4 136.4 59.2 136.8C58.9 137.4 58.2 137.9 57.4 137.9ZM10.1 133.7H56C57.2 130.8 59.9 122.6 59.9 110.7C59.9 90.5 47.8 82.9 41.3 78.8C40.3 78.2 39.5 77.6 38.8 77.2C33.8 73.4 32.1 69.4 33.5 64.5C34.1 62.2 36.7 52.6 37.7 49.1C38.4 46.6 40.2 46.2 40.9 46.1C40.9 46.1 41 46 41 45.9C41 45.8 40.9 45.7 40.8 45.7H24.3C23.8 46.8 23.2 47.9 22.5 49C15.2 62.8 4.2 83.6 4.2 104.3C4.2 119.5 8.5 130.3 10.1 133.7Z" fill="#333739"/>
<path d="M60.4 57.5C60.1 57.5 59.7 57.4 59.4 57.2C49.2 51.7 44 40 46.7 28.7C47 27.6 48.1 26.9 49.2 27.1C50.3 27.4 51 28.5 50.7 29.6C48.4 39 52.8 48.8 61.3 53.5C62.3 54.1 62.7 55.3 62.1 56.3C61.8 57.1 61.1 57.5 60.4 57.5Z" fill="#333739"/>
<path d="M36.1 119.2H27C25.8 119.2 24.9 118.3 24.9 117.1V111.6H19.4C18.2 111.6 17.3 110.7 17.3 109.5V100.4C17.3 99.2 18.2 98.3 19.4 98.3H24.9V92.8C24.9 91.6 25.8 90.7 27 90.7H36.1C37.3 90.7 38.2001 91.6 38.2001 92.8V98.3H43.7001C44.9001 98.3 45.8 99.2 45.8 100.4V109.5C45.8 110.7 44.9001 111.6 43.7001 111.6H38.2001V117.1C38.2001 118.3 37.2 119.2 36.1 119.2ZM29.1 115H34V109.5C34 108.3 34.9 107.4 36.1 107.4H41.6V102.5H36.1C34.9 102.5 34 101.6 34 100.4V94.9H29.1V100.4C29.1 101.6 28.2 102.5 27 102.5H21.5V107.4H27C28.2 107.4 29.1 108.3 29.1 109.5V115Z" fill="#D61F74"/>
<path d="M112.4 135.6C112.4 135.6 108.3 125.8 106.9 122.3C105.5 118.8 105.1 118.8 104.4 118.6C103.5 118.4 102 118.1 99.9998 116.7C97.7998 115.2 95.0998 113.2 93.0998 111.5C90.6998 109.6 89.8998 107.4 88.3998 103.8L87.9998 102.7C86.6998 99.6001 85.3998 96.3001 81.8998 92.9001C78.9998 90.1001 80.2998 87.6001 80.6998 87.0001C82.1998 84.8001 85.7998 84.1001 88.7998 85.5001C93.7998 87.7001 96.1998 92.2001 97.9998 95.6001L98.1998 96.0001C98.6998 97.0001 98.3998 98.3001 97.2998 98.8001C96.2998 99.3001 94.9998 99.0001 94.4998 97.9001L94.2998 97.5001C92.6998 94.6001 90.7998 90.9001 87.1998 89.3001C85.8998 88.8001 84.6998 89.0001 84.2998 89.2001C84.3998 89.3001 84.4998 89.6001 84.7998 89.9001C88.8998 94.0001 90.4998 97.8001 91.7998 101.2L92.1998 102.3C93.4998 105.6 94.0998 107.1 95.5998 108.3C97.5998 109.9 100.2 111.8 102.3 113.3C103.6 114.2 104.4 114.4 105.2 114.5C107.7 115 108.8 116 110.8 120.7C112.2 124.2 116.3 134 116.3 134L112.4 135.6Z" fill="#333739"/>
<path d="M97.3998 86.2L88.2998 62.4001C86.9998 59.1001 88.1998 55.9 91.1998 54.7C94.1998 53.5 97.1998 54.9 98.6998 58.2L108.8 81.6C109.3 82.7 108.8 83.9001 107.7 84.4001C106.6 84.9001 105.4 84.4001 104.9 83.3001L94.7998 59.8C94.5998 59.3 93.8998 58.1 92.7998 58.5C91.6998 58.9 91.9998 60.1 92.2998 60.8L101.4 84.6L97.3998 86.2Z" fill="#333739"/>
<path d="M96.2998 99C95.4998 99 94.7998 98.6 94.3998 97.9C94.3998 97.8 93.3998 96 91.5998 92.2C91.2998 91.6 90.7998 90.2 90.1998 88.3L89.9998 87.7C88.8998 84.6 87.8998 81.3 86.8998 78.1C85.8998 74.9 84.7998 71.6 83.6998 68.4C81.7998 62.7 85.1998 60.8 86.2998 60.4C89.0998 59.2 91.9998 60.7 93.2998 63.8C93.6998 64.9 93.1998 66.1 92.1998 66.5C91.0998 66.9 89.8998 66.4 89.4998 65.4C89.1998 64.7 88.6998 63.9 87.8998 64.3C86.9998 64.6 87.2998 66 87.6998 67.1C88.7998 70.3 89.8998 73.6 90.8998 76.9C91.8998 80.1 92.9998 83.4 93.9998 86.4L94.1998 87C94.4998 88 95.1998 90 95.3998 90.4C97.1998 94.1 98.0998 95.9 98.0998 95.9C98.5998 96.9 98.2998 98.2 97.1998 98.7C96.9998 98.9 96.5998 99 96.2998 99Z" fill="#333739"/>
<path d="M112.8 82.7C112.8 82.7 106.9 70.4 102.4 61.2C101.9 60.1 101.3 59.7 100.7 60C99.7998 60.4 99.9998 61.4 100.3 62C100.7 63.1 100.2 64.3 99.0998 64.7C97.9998 65.1 96.7998 64.6 96.3998 63.5C95.0998 60.4 96.2998 57.2 99.0998 56.1C101.9 55 104.7 56.3 106.2 59.4C110.6 68.6 116.6 80.9 116.6 80.9L112.8 82.7Z" fill="#333739"/>
<path d="M130.9 119.1C130.1 119.1 129.3 118.6 129 117.8C129 117.8 128.5 116.5 126.7 112.1C125.8 109.9 126.1 107.8 126.5 105.6C127 102.5 127.6 98.9999 125.2 93.0999L124.3 90.8999C123.8 89.6999 123.3 88.4999 123 87.6999C121.6 84.3999 119.5 80.0999 118.7 78.6999C117.5 76.6999 116.4 74.5999 115.2 72.5999C114.2 70.8999 113.2 69.1999 112.2 67.4999C111.8 66.6999 110.9 66.0999 110.5 66.2999C110.2 66.3999 109.9 66.6999 110.3 67.7999C110.7 68.8999 110.2 70.0999 109.2 70.4999C108.1 70.8999 106.9 70.3999 106.5 69.3999C105.3 66.5999 106.1 63.9999 108.5 62.5999C111 61.1999 114.1 62.2999 115.9 65.2999C116.9 66.9999 117.9 68.6999 118.8 70.3999C120 72.3999 121.2 74.4999 122.4 76.4999C123.2 77.9999 125.5 82.3999 126.9 85.9999C127.2 86.6999 127.7 87.9999 128.2 89.1999L129.1 91.3999C132 98.3999 131.2 102.9 130.7 106.2C130.4 108.1 130.2 109.3 130.6 110.4C132.3 114.7 132.9 116 132.9 116C133.3 117.1 132.8 118.3 131.8 118.7C131.4 119 131.2 119.1 130.9 119.1Z" fill="#333739"/>
<path d="M82.3999 103.7H75.4999C74.2999 103.7 73.3999 102.8 73.3999 101.6V49.6C73.3999 48.4 74.2999 47.5 75.4999 47.5H126C127.2 47.5 128.1 48.4 128.1 49.6V76.3C128.1 77.5 127.2 78.4 126 78.4C124.8 78.4 123.9 77.5 123.9 76.3V51.6H77.5999V99.5H82.3999C83.5999 99.5 84.4999 100.4 84.4999 101.6C84.4999 102.7 83.5999 103.7 82.3999 103.7Z" fill="#333739"/>
<path d="M67.5999 21.5001C66.9999 21.5001 66.0999 21.1001 65.6999 20.7001C65.2999 20.3001 64.8999 19.4001 64.8999 18.8001C64.8999 18.2001 65.2999 17.3001 65.6999 16.9001C66.0999 16.5001 66.9999 16.1001 67.5999 16.1001C68.1999 16.1001 69.0999 16.5001 69.4999 16.9001C69.8999 17.3001 70.2999 18.2001 70.2999 18.7001C70.2999 19.3001 69.8999 20.2001 69.4999 20.6001C68.9999 21.2001 68.0999 21.5001 67.5999 21.5001Z" fill="#D61F74"/>
<path d="M72.9999 16.1C72.4999 16.1 71.4999 15.7 71.0999 15.3C70.0999 14.3 70.0999 12.6 71.0999 11.6C71.4999 11.2 72.3999 10.8 72.9999 10.8C73.6999 10.8 74.3999 11.1 74.8999 11.6C75.8999 12.7 75.8999 14.3 74.8999 15.3C74.4999 15.7 73.4999 16.1 72.9999 16.1Z" fill="#D61F74"/>
<path d="M78.4 10.6999C77.8 10.6999 76.9 10.2999 76.5 9.8999C75.5 8.8999 75.5 7.1999 76.5 6.1999C76.9 5.7999 77.8 5.3999 78.4 5.3999C79.1 5.3999 79.7 5.6999 80.2 6.0999C81.3 7.1999 81.3 8.7999 80.2 9.8999C79.9 10.2999 79 10.6999 78.4 10.6999Z" fill="#D61F74"/>
<path d="M83.7999 5.3C83.1999 5.3 82.2999 4.9 81.8999 4.5C81.4999 4.1 81.0999 3.2 81.0999 2.6C81.0999 2.1 81.4999 1.2 81.8999 0.8C82.2999 0.4 83.2999 0 83.7999 0C84.4999 0 85.1999 0.3 85.6999 0.8C86.0999 1.2 86.4999 2.1 86.4999 2.7C86.4999 3.4 86.1999 4.1 85.6999 4.6C85.2999 4.9 84.3999 5.3 83.7999 5.3Z" fill="#D61F74"/>
<path d="M72.9998 27.0001C72.3998 27.0001 71.4998 26.6001 71.0998 26.2001C70.6998 25.8001 70.2998 24.9001 70.2998 24.3001C70.2998 23.7001 70.6998 22.8001 71.0998 22.4001C71.4998 22.0001 72.3998 21.6001 72.9998 21.6001C73.6998 21.6001 74.3998 21.9001 74.8998 22.4001C75.8998 23.5001 75.8998 25.1001 74.8998 26.1001C74.4998 26.6001 73.4998 27.0001 72.9998 27.0001Z" fill="#D61F74"/>
<path d="M78.4 21.5001C77.8 21.5001 76.9 21.1001 76.5 20.7001C76.1 20.3001 75.7 19.4001 75.7 18.8001C75.7 18.2001 76.1 17.3001 76.5 16.9001C76.9 16.5001 77.8 16.1001 78.4 16.1001C79 16.1001 79.9 16.5001 80.3 16.9001C81.3 17.9001 81.3 19.6001 80.3 20.6001C79.9 21.2001 79 21.5001 78.4 21.5001Z" fill="#D61F74"/>
<path d="M83.7999 16.1C83.1999 16.1 82.2999 15.7 81.8999 15.3C80.8999 14.3 80.8999 12.6 81.8999 11.6C82.2999 11.2 83.1999 10.8 83.7999 10.8C84.4999 10.8 85.0999 11.1 85.5999 11.5C85.9999 11.9 86.3999 12.8 86.3999 13.4C86.3999 14.1 86.0999 14.8 85.5999 15.3C85.2999 15.8 84.3999 16.1 83.7999 16.1Z" fill="#D61F74"/>
<path d="M89.1998 10.6999C88.5998 10.6999 87.6998 10.2999 87.2998 9.8999C86.2998 8.8999 86.2998 7.1999 87.2998 6.1999C87.6998 5.7999 88.5998 5.3999 89.1998 5.3999C89.8998 5.3999 90.4998 5.6999 90.9998 6.0999C92.0998 7.1999 92.0998 8.7999 90.9998 9.8999C90.6998 10.2999 89.7998 10.6999 89.1998 10.6999Z" fill="#D61F74"/>
<path d="M78.4 32.4001C77.8 32.4001 76.9 32.0001 76.5 31.6001C75.5 30.6001 75.5 28.9001 76.5 27.9001C76.9 27.5001 77.8 27.1001 78.4 27.1001C79.1 27.1001 79.8 27.4001 80.3 27.9001C81.3 29.0001 81.3 30.6001 80.3 31.6001C79.9 32.0001 79 32.4001 78.4 32.4001Z" fill="#D61F74"/>
<path d="M83.7999 27C83.1999 27 82.2999 26.6 81.8999 26.2C80.8999 25.1 80.8999 23.5 81.8999 22.5C82.2999 22.1 83.1999 21.7 83.7999 21.7C84.4999 21.7 85.1999 22 85.6999 22.5C86.6999 23.6 86.6999 25.2 85.6999 26.2C85.2999 26.6 84.3999 27 83.7999 27Z" fill="#D61F74"/>
<path d="M89.2 21.5C88.7 21.5 87.8 21.0999 87.4 20.7999C86.3 19.6999 86.4 18 87.4 17C87.8 16.6 88.7 16.2 89.3 16.2C90 16.2 90.7 16.5 91.2 17C91.6 17.4 92 18.3 92 18.9C92 19.4 91.6 20.3999 91.2 20.7999C90.7 21.1999 89.8 21.5 89.2 21.5Z" fill="#D61F74"/>
<path d="M83.7999 37.7999C83.1999 37.7999 82.2999 37.3999 81.8999 36.9999C81.4999 36.5999 81.0999 35.6999 81.0999 35.0999C81.0999 34.4999 81.4999 33.5999 81.8999 33.1999C82.2999 32.7999 83.1999 32.3999 83.7999 32.3999C84.4999 32.3999 85.1999 32.6999 85.6999 33.1999C86.0999 33.5999 86.4999 34.4999 86.4999 34.9999C86.4999 35.5999 86.0999 36.4999 85.6999 36.8999C85.2999 37.3999 84.3999 37.7999 83.7999 37.7999Z" fill="#D61F74"/>
<path d="M89.1998 32.4001C88.5998 32.4001 87.6998 32.0001 87.2998 31.6001C86.2998 30.6001 86.2998 28.9001 87.2998 27.9001C87.6998 27.5001 88.5998 27.1001 89.1998 27.1001C89.8998 27.1001 90.5998 27.4001 91.0998 27.9001C92.0998 28.9001 92.0998 30.6001 91.0998 31.6001C90.6998 32.0001 89.7998 32.4001 89.1998 32.4001Z" fill="#D61F74"/>
</g>
<defs>
<clipPath id="clip0_51_103">
<rect width="133" height="137.9" fill="white"/>
</clipPath>
</defs>
</svg>
