<svg width="26" height="37" viewBox="0 0 26 37" fill="none" xmlns="http://www.w3.org/2000/svg">
<path d="M12.7 37L11.4 35.6C3.8 27.7 0 20 0 12.7C0 5.7 5.7 0 12.7 0C19.7 0 25.4 5.7 25.4 12.7C25.4 20 21.6 27.7 14 35.7L12.7 37ZM12.7 3.6C7.7 3.6 3.7 7.7 3.7 12.6C3.7 18.5 6.7 24.9 12.7 31.6C18.7 24.9 21.7 18.5 21.7 12.6C21.7 7.7 17.7 3.6 12.7 3.6Z" fill="white"/>
<path d="M12.6996 16.3001C14.6878 16.3001 16.2996 14.6883 16.2996 12.7001C16.2996 10.7119 14.6878 9.1001 12.6996 9.1001C10.7114 9.1001 9.09961 10.7119 9.09961 12.7001C9.09961 14.6883 10.7114 16.3001 12.6996 16.3001Z" fill="white"/>
</svg>
