<svg width="222" height="44" viewBox="0 0 222 44" fill="none" xmlns="http://www.w3.org/2000/svg">
<g clip-path="url(#clip0_1_3)">
<path d="M58.6 9H53.4V0.9H58.6V2H54.6V4.4H58V5.5H54.6V7.9H58.6V9Z" fill="white"/>
<path d="M61.4 9H59.9L63.2 4.7L60.2 0.9H61.7L64.6 4.8L61.4 9ZM65.7 9H64.5V0.9H65.7V9ZM70.4 9H68.9L65.8 4.8L68.7 0.9H70.2L67.2 4.7L70.4 9Z" fill="white"/>
<path d="M77 9H71.8V0.9H77V2H73V4.4H76.4V5.5H73V7.9H77V9Z" fill="white"/>
<path d="M83.8 2H80V9H78.8V0.9H83.8V2Z" fill="white"/>
<path d="M90.7 2.8C90.8 3.2 90.8 3.9 90.8 4.9C90.8 5.9 90.8 6.6 90.7 7C90.6 7.4 90.4 7.8 90 8.2C89.5 8.8 88.8 9 87.9 9C87.1 9 86.4 8.7 85.8 8.2C85.4 7.8 85.2 7.4 85.1 7C85.1 6.6 85 5.9 85 4.9C85 3.9 85 3.2 85.1 2.8C85.2 2.4 85.4 2 85.8 1.6C86.3 1.1 87 0.799999 87.9 0.799999C88.7 0.799999 89.4 1.1 90 1.6C90.4 2 90.6 2.4 90.7 2.8ZM89.5 6.6C89.6 6.3 89.6 5.7 89.6 4.9C89.6 4.1 89.6 3.5 89.5 3.2C89.4 2.9 89.3 2.6 89.1 2.4C88.8 2.1 88.4 1.9 87.9 1.9C87.4 1.9 87 2.1 86.7 2.4C86.5 2.6 86.4 2.9 86.3 3.2C86.2 3.5 86.2 4.1 86.2 4.9C86.2 5.7 86.2 6.3 86.3 6.6C86.4 6.9 86.5 7.2 86.7 7.4C87 7.7 87.4 7.9 87.9 7.9C88.4 7.9 88.8 7.7 89.1 7.4C89.3 7.2 89.5 7 89.5 6.6Z" fill="white"/>
<path d="M93.8 0.9H98.5V7.9H99.5V10.8H98.3V9H93.4V10.8H92.2V7.9H92.9C93.6 6.9 93.9 5.3 93.9 3.3V0.9H93.8ZM94.9 2V3.8C94.9 5.5 94.6 6.9 94.1 7.9H97.1V2H94.9Z" fill="white"/>
<path d="M106.7 9H105.5V5.4H102.2V9H101V0.9H102.2V4.4H105.5V0.9H106.7V9Z" fill="white"/>
<path d="M115.2 9H113.9L113.3 7.4H110.1L109.5 9H108.2L111.2 0.9H112.2L115.2 9ZM113 6.3L111.8 2.7L110.5 6.3H113Z" fill="white"/>
<path d="M119.4 5.8L117.8 9H116.3L118.1 5.6C117.6 5.4 117.2 5.2 117 4.8C116.7 4.4 116.6 3.9 116.6 3.4C116.6 2.7 116.8 2.1 117.3 1.6C117.8 1.2 118.4 0.9 119.2 0.9H122.3V9H121V5.8H119.4ZM121 4.7V2H119.2C118.8 2 118.4 2.1 118.1 2.4C117.8 2.6 117.7 3 117.7 3.4C117.7 3.8 117.8 4.1 118.1 4.4C118.4 4.6 118.7 4.8 119.1 4.8H121V4.7Z" fill="white"/>
<path d="M128.7 9H127.5V0.9H128.7V9ZM133.5 9H132L128.7 4.8L131.7 0.9H133.2L130.1 4.7L133.5 9Z" fill="white"/>
<path d="M139.9 2.8C140 3.3 140 4 140 4.9C140 5.8 140 6.6 139.9 7C139.8 7.4 139.6 7.8 139.2 8.2C138.7 8.8 138 9 137.1 9C136.3 9 135.6 8.7 135 8.2C134.6 7.8 134.4 7.4 134.3 7C134.2 6.6 134.2 5.9 134.2 4.9C134.2 3.9 134.2 3.2 134.3 2.8C134.4 2.4 134.6 2 135 1.6C135.5 1.1 136.2 0.799999 137.1 0.799999C137.9 0.799999 138.6 1.1 139.2 1.6C139.6 2 139.8 2.4 139.9 2.8ZM138.7 6.6C138.8 6.3 138.8 5.7 138.8 4.9C138.8 4.1 138.8 3.5 138.7 3.2C138.6 2.9 138.5 2.6 138.3 2.4C138 2.1 137.6 1.9 137.1 1.9C136.6 1.9 136.2 2.1 135.9 2.4C135.7 2.6 135.6 2.9 135.5 3.2C135.4 3.5 135.4 4.1 135.4 4.9C135.4 5.7 135.4 6.3 135.5 6.6C135.6 6.9 135.7 7.2 135.9 7.4C136.2 7.7 136.6 7.9 137.1 7.9C137.6 7.9 138 7.7 138.3 7.4C138.5 7.2 138.7 7 138.7 6.6Z" fill="white"/>
<path d="M146.9 1.6C147.4 2.1 147.6 2.6 147.6 3.4C147.6 4.1 147.4 4.7 146.9 5.2C146.4 5.7 145.8 5.9 145 5.9H143.2V9H142V0.9H145.1C145.8 0.9 146.5 1.1 146.9 1.6ZM146 4.3C146.3 4.1 146.4 3.7 146.4 3.3C146.4 2.9 146.3 2.5 146 2.3C145.7 2.1 145.4 2 145 2H143.2V4.7H145C145.4 4.7 145.8 4.6 146 4.3Z" fill="white"/>
<path d="M155 9H153.8V2H150.5V9H149.3V0.9H155V9Z" fill="white"/>
<path d="M162.7 2.8C162.8 3.2 162.8 3.9 162.8 4.9C162.8 5.9 162.8 6.6 162.7 7C162.6 7.4 162.4 7.8 162 8.2C161.5 8.7 160.8 9 159.9 9C159.1 9 158.4 8.7 157.8 8.2C157.4 7.8 157.2 7.4 157.1 7C157 6.6 157 5.9 157 4.9C157 3.9 157 3.2 157.1 2.8C157.2 2.4 157.4 2 157.8 1.6C158.3 1.1 159 0.799999 159.9 0.799999C160.7 0.799999 161.4 1.1 162 1.6C162.4 2 162.6 2.4 162.7 2.8ZM161.5 6.6C161.6 6.3 161.6 5.7 161.6 4.9C161.6 4.1 161.6 3.5 161.5 3.2C161.4 2.9 161.3 2.6 161.1 2.4C160.8 2.1 160.4 1.9 159.9 1.9C159.4 1.9 159 2.1 158.7 2.4C158.5 2.6 158.4 2.9 158.3 3.2C158.2 3.5 158.2 4.1 158.2 4.9C158.2 5.7 158.2 6.3 158.3 6.6C158.4 6.9 158.5 7.2 158.7 7.4C159 7.7 159.4 7.9 159.9 7.9C160.4 7.9 160.8 7.7 161.1 7.4C161.3 7.2 161.4 7 161.5 6.6Z" fill="white"/>
<path d="M169.7 1.6C170.2 2.1 170.4 2.6 170.4 3.4C170.4 4.1 170.2 4.7 169.7 5.2C169.2 5.7 168.6 5.9 167.8 5.9H166V9H164.8V0.9H167.9C168.6 0.9 169.2 1.1 169.7 1.6ZM168.8 4.3C169.1 4.1 169.2 3.7 169.2 3.3C169.2 2.9 169.1 2.5 168.8 2.3C168.5 2.1 168.2 1.9 167.8 1.9H166V4.6H167.8C168.2 4.7 168.5 4.6 168.8 4.3Z" fill="white"/>
<path d="M177.6 9H176.3L175.7 7.4H172.5L172 9H170.7L173.7 0.9H174.7L177.6 9ZM175.4 6.3L174.2 2.7L172.9 6.3H175.4Z" fill="white"/>
<path d="M183.3 2H181.1V9H179.9V2H177.7V0.9H183.4V2H183.3Z" fill="white"/>
<path d="M190.9 9H189.7V3.1L186 9H184.9V0.9H186.1V6.8L189.7 0.9H190.8V9H190.9Z" fill="white"/>
<path d="M198.8 6.7C198.8 7.4 198.6 7.9 198.1 8.4C197.7 8.8 197.1 9 196.3 9H193V0.9H196.1C196.8 0.9 197.4 1.1 197.9 1.5C198.3 1.9 198.6 2.4 198.6 3.1C198.6 3.9 198.2 4.5 197.5 4.9C198.4 5.2 198.8 5.8 198.8 6.7ZM197.1 4C197.3 3.8 197.5 3.5 197.5 3.1C197.5 2.7 197.4 2.5 197.1 2.2C196.9 2 196.5 1.9 196.1 1.9H194.3V4.2H196.1C196.5 4.3 196.9 4.2 197.1 4ZM197.2 7.5C197.4 7.3 197.6 7 197.6 6.6C197.6 6.2 197.5 5.9 197.2 5.7C197 5.5 196.6 5.4 196.2 5.4H194.3V7.9H196.2C196.6 7.9 197 7.7 197.2 7.5Z" fill="white"/>
<path d="M206.4 9H205.2V5.4H201.9V9H200.7V0.9H201.9V4.4H205.2V0.9H206.4V9Z" fill="white"/>
<path d="M214.8 9H213.5L213 7.3H209.8L209.2 9H207.9L210.9 0.9H211.9L214.8 9ZM212.7 6.3L211.5 2.7L210.2 6.3H212.7Z" fill="white"/>
<path d="M219.1 5.8L217.5 9H216L217.8 5.6C217.3 5.4 216.9 5.2 216.7 4.8C216.4 4.4 216.3 3.9 216.3 3.4C216.3 2.7 216.5 2.1 217 1.6C217.5 1.2 218.1 0.9 218.9 0.9H222V9H220.8V5.8H219.1ZM220.7 4.7V2H218.9C218.5 2 218.1 2.1 217.8 2.4C217.5 2.6 217.4 3 217.4 3.4C217.4 3.8 217.5 4.1 217.8 4.4C218.1 4.6 218.4 4.8 218.8 4.8H220.7V4.7Z" fill="white"/>
<path d="M53.6 25.6H52.4V22H49.1V25.5H47.9V17.4H49.1V20.9H52.4V17.4H53.6V25.6Z" fill="white"/>
<path d="M62 25.6H60.7L60.1 24H57L56.4 25.6H55.1L58.1 17.5H59.1L62 25.6ZM59.8 22.9L58.6 19.3L57.3 22.9H59.8Z" fill="white"/>
<path d="M68.9 17.5L66 24.3C65.6 25.2 65.1 25.6 64.3 25.6H63.5V24.5H64C64.4 24.5 64.8 24.3 64.9 23.9L65.2 23.2L62.6 17.5H63.9L65.8 21.8L67.5 17.5H68.9Z" fill="white"/>
<path d="M75.7 25.6H74.5V22.4C73.6 22.6 72.9 22.7 72.3 22.7C71.7 22.7 71.2 22.5 70.8 22.2C70.4 21.9 70.2 21.4 70.2 20.7V17.5H71.4V20.4C71.4 21.2 71.8 21.6 72.6 21.6C73.1 21.6 73.7 21.5 74.4 21.4V17.5H75.6V25.6H75.7Z" fill="white"/>
<path d="M83.7 25.6H82.5V22H79.2V25.5H78V17.4H79.2V20.9H82.5V17.4H83.7V25.6Z" fill="white"/>
<path d="M91.3 19.4C91.4 19.8 91.4 20.5 91.4 21.5C91.4 22.5 91.4 23.2 91.3 23.6C91.2 24 91 24.4 90.6 24.8C90.1 25.3 89.4 25.6 88.5 25.6C87.7 25.6 87 25.3 86.4 24.8C86 24.4 85.8 24 85.7 23.6C85.6 23.2 85.6 22.5 85.6 21.5C85.6 20.5 85.6 19.8 85.7 19.4C85.8 19 86 18.6 86.4 18.2C86.9 17.7 87.6 17.4 88.5 17.4C89.3 17.4 90 17.7 90.6 18.2C91 18.6 91.2 19 91.3 19.4ZM90.1 23.2C90.2 22.9 90.2 22.3 90.2 21.5C90.2 20.7 90.2 20.1 90.1 19.8C90 19.5 89.9 19.2 89.7 19C89.4 18.7 89 18.5 88.5 18.5C88 18.5 87.6 18.7 87.3 19C87.1 19.2 87 19.5 86.9 19.8C86.8 20.1 86.8 20.7 86.8 21.5C86.8 22.3 86.8 22.9 86.9 23.2C87 23.5 87.1 23.8 87.3 24C87.6 24.3 88 24.5 88.5 24.5C89 24.5 89.4 24.3 89.7 24C89.9 23.8 90 23.6 90.1 23.2Z" fill="white"/>
<path d="M96.6 23H93.3V21.9H96.6V23Z" fill="white"/>
<path d="M102.8 18.6H100.6V25.6H99.4V18.6H97.2V17.5H102.9V18.6H102.8Z" fill="white"/>
<path d="M109.6 25.6H104.4V17.5H109.6V18.6H105.6V21H109V22H105.6V24.4H109.6V25.6Z" fill="white"/>
<path d="M117.2 25.6H115.8L114 22.5L112.2 25.6H110.8L113.3 21.5L111 17.6H112.4L114 20.5L115.6 17.6H117L114.7 21.5L117.2 25.6Z" fill="white"/>
<path d="M124.4 25.6H123.2V22H119.9V25.5H118.7V17.4H119.9V20.9H123.2V17.4H124.4V25.6Z" fill="white"/>
<path d="M132.6 25.6H131.4V19.7L127.8 25.6H126.7V17.5H127.9V23.4L131.5 17.5H132.6V25.6Z" fill="white"/>
<path d="M139.9 25.6H138.7V22.4C137.8 22.6 137.1 22.7 136.5 22.7C135.9 22.7 135.4 22.5 135 22.2C134.6 21.9 134.4 21.4 134.4 20.7V17.5H135.6V20.4C135.6 21.2 136 21.6 136.8 21.6C137.3 21.6 137.9 21.5 138.6 21.4V17.5H139.8V25.6H139.9Z" fill="white"/>
<path d="M147.3 25.6H142.1V17.5H147.3V18.6H143.3V21H146.7V22H143.3V24.4H147.3V25.6Z" fill="white"/>
<path d="M154.5 23.2C154.4 24 154 24.6 153.5 25C153 25.4 152.3 25.7 151.6 25.7C150.8 25.7 150.1 25.4 149.5 24.9C149.1 24.5 148.9 24.1 148.8 23.7C148.7 23.3 148.7 22.6 148.7 21.6C148.7 20.6 148.7 20 148.8 19.5C148.9 19.1 149.1 18.7 149.5 18.3C150 17.8 150.7 17.5 151.6 17.5C152.4 17.5 153 17.7 153.5 18.2C154 18.6 154.3 19.2 154.5 20H153.3C153.2 19.6 153 19.2 152.7 19C152.4 18.8 152.1 18.6 151.6 18.6C151.1 18.6 150.7 18.8 150.4 19.1C150.2 19.3 150.1 19.6 150 19.9C149.9 20.2 149.9 20.8 149.9 21.6C149.9 22.4 149.9 23 150 23.3C150.1 23.6 150.2 23.9 150.4 24.1C150.7 24.4 151.1 24.6 151.6 24.6C152 24.6 152.4 24.5 152.7 24.2C153 24 153.2 23.6 153.3 23.2H154.5Z" fill="white"/>
<path d="M157.5 25.6H156.3V17.5H157.5V25.6ZM162.3 25.6H160.7L157.4 21.4L160.4 17.5H161.9L158.8 21.3L162.3 25.6Z" fill="white"/>
<path d="M170.2 25.6H168.9L168.3 24H165.1L164.5 25.6H163.2L166.2 17.5H167.2L170.2 25.6ZM168 22.9L166.8 19.3L165.5 22.9H168Z" fill="white"/>
<path d="M174.4 22.4L172.8 25.6H171.3L173.1 22.2C172.6 22 172.2 21.8 172 21.4C171.7 21 171.6 20.5 171.6 20C171.6 19.3 171.8 18.7 172.3 18.2C172.8 17.8 173.4 17.5 174.2 17.5H177.3V25.6H176V22.4H174.4ZM176 21.3V18.6H174.2C173.8 18.6 173.4 18.7 173.1 19C172.8 19.2 172.7 19.6 172.7 20C172.7 20.4 172.8 20.7 173.1 21C173.4 21.2 173.7 21.4 174.1 21.4H176V21.3Z" fill="white"/>
<path d="M43.6 42.2H42.4V34.1H43.6V42.2ZM48.4 42.2H46.8L43.5 38L46.5 34.1H48L45 37.9L48.4 42.2Z" fill="white"/>
<path d="M54.8 36C54.9 36.4 54.9 37.1 54.9 38.1C54.9 39.1 54.9 39.8 54.8 40.2C54.7 40.6 54.5 41 54.1 41.4C53.6 41.9 52.9 42.2 52 42.2C51.2 42.2 50.5 41.9 49.9 41.4C49.5 41 49.3 40.6 49.2 40.2C49.1 39.8 49.1 39.1 49.1 38.1C49.1 37.1 49.1 36.4 49.2 36C49.3 35.6 49.5 35.2 49.9 34.8C50.4 34.3 51.1 34 52 34C52.8 34 53.5 34.3 54.1 34.8C54.5 35.2 54.7 35.6 54.8 36ZM53.6 39.9C53.7 39.6 53.7 39 53.7 38.2C53.7 37.4 53.7 36.8 53.6 36.5C53.5 36.2 53.4 35.9 53.2 35.7C52.9 35.4 52.5 35.2 52 35.2C51.5 35.2 51.1 35.4 50.8 35.7C50.6 35.9 50.5 36.2 50.4 36.5C50.3 36.8 50.3 37.4 50.3 38.2C50.3 39 50.3 39.6 50.4 39.9C50.5 40.2 50.6 40.5 50.8 40.7C51.1 41 51.5 41.2 52 41.2C52.5 41.2 52.9 41 53.2 40.7C53.4 40.4 53.5 40.2 53.6 39.9Z" fill="white"/>
<path d="M62.6 42.2H61.4V38.7H58.1V42.2H56.9V34.1H58.1V37.6H61.4V34.1H62.6V42.2Z" fill="white"/>
<path d="M68.9 42.2H67.7V41.2C66.5 41.1 65.7 40.8 65.2 40.3C64.7 39.7 64.4 38.9 64.4 37.8C64.4 36.7 64.7 35.9 65.2 35.4C65.7 34.9 66.6 34.6 67.7 34.5V33.7H68.9V34.5C70 34.6 70.9 34.9 71.4 35.4C71.9 35.9 72.2 36.7 72.2 37.8C72.2 38.9 71.9 39.7 71.4 40.3C70.9 40.9 70 41.2 68.9 41.2V42.2ZM67.7 40.2V35.6C66.9 35.6 66.4 35.8 66.1 36.2C65.8 36.6 65.6 37.1 65.6 37.9C65.6 38.6 65.8 39.2 66.1 39.6C66.3 40 66.9 40.2 67.7 40.2ZM68.9 35.6V40.2C69.7 40.2 70.2 40 70.5 39.6C70.8 39.2 71 38.7 71 37.9C71 37.1 70.8 36.6 70.5 36.2C70.2 35.8 69.7 35.6 68.9 35.6Z" fill="white"/>
<path d="M79.1 42.2H74V34.1H79.2V35.2H75.2V37.6H78.6V38.7H75.2V41.1H79.2V42.2H79.1Z" fill="white"/>
<path d="M85.8 34.8C86.3 35.3 86.5 35.8 86.5 36.6C86.5 37.3 86.3 37.9 85.8 38.4C85.4 38.8 84.7 39 84 39H82.2V42.2H81V34.1H84C84.7 34.1 85.4 34.3 85.8 34.8ZM84.9 37.5C85.2 37.3 85.3 36.9 85.3 36.5C85.3 36.1 85.2 35.7 84.9 35.5C84.6 35.3 84.3 35.1 83.9 35.1H82.1V37.8H83.9C84.3 37.9 84.7 37.8 84.9 37.5Z" fill="white"/>
<path d="M93.4 42.2H88.2V34.1H93.4V35.2H89.4V37.6H92.8V38.7H89.4V41.1H93.4V42.2Z" fill="white"/>
<path d="M100.9 42.2H99.7V38.7H96.4V42.2H95.2V34.1H96.4V37.6H99.7V34.1H100.9V42.2Z" fill="white"/>
<path d="M109.8 44H108.6V42.2H103.1V34.1H104.3V41.1H107.6V34.1H108.8V41.1H109.8V44Z" fill="white"/>
<path d="M117.4 42.2H116.2V36.3L112.6 42.2H111.5V34.1H112.7V40L116.3 34.1H117.4V42.2Z" fill="white"/>
<path d="M122.1 39L120.5 42.2H119L120.8 38.8C120.3 38.6 119.9 38.4 119.7 38C119.5 37.6 119.3 37.1 119.3 36.6C119.3 35.9 119.5 35.3 120 34.8C120.5 34.4 121.1 34.1 121.9 34.1H125V42.2H123.8V39H122.1ZM123.7 37.9V35.2H121.9C121.5 35.2 121.1 35.3 120.8 35.6C120.5 35.8 120.4 36.2 120.4 36.6C120.4 37 120.5 37.3 120.8 37.6C121.1 37.8 121.4 38 121.8 38H123.7V37.9Z" fill="white"/>
<path d="M4.6 43.6H0V0H4.6V43.6Z" fill="white"/>
<path d="M44.7 0L30.3 43.6H26.5L12.2 0H17.1L28.4 35.2L39.8 0H44.7Z" fill="white"/>
</g>
<defs>
<clipPath id="clip0_1_3">
<rect width="221.9" height="44" fill="white"/>
</clipPath>
</defs>
</svg>
