<svg xmlns="http://www.w3.org/2000/svg" viewBox="0 0 244.89 51.78"><defs><style>.cls-1{fill:#1a1a1a;}</style></defs><g id="Слой_2" data-name="Слой 2"><g id="Layer_1" data-name="Layer 1"><path class="cls-1" d="M232.13,17.15A8.41,8.41,0,0,1,238,19.28a7.68,7.68,0,0,1,2.42,5.84H222.84a9.77,9.77,0,0,1,3.25-5.78,9,9,0,0,1,6-2.19m12.76,8.54a12,12,0,0,0-3.62-9,12.38,12.38,0,0,0-9-3.53,13.5,13.5,0,0,0-10.08,4.21,14.2,14.2,0,0,0-4.1,10.31A13.9,13.9,0,0,0,222.27,38a14.35,14.35,0,0,0,10.48,4.16,14.66,14.66,0,0,0,11.11-4.84l-2.56-3a11.76,11.76,0,0,1-8.49,3.76,10.06,10.06,0,0,1-6.92-2.51A9.76,9.76,0,0,1,222.67,29h21.87a15,15,0,0,0,.35-3.3M210.77,13.78h-4.39v17a7.21,7.21,0,0,1-2,5.33,6.88,6.88,0,0,1-5,2,6.94,6.94,0,0,1-7.18-7.35v-17h-4.33V30.47a11.13,11.13,0,0,0,11.51,11.68,11.17,11.17,0,0,0,8.17-3.22,11.29,11.29,0,0,0,3.28-8.46ZM164.52,38.11a9.34,9.34,0,0,1-7-3,10.42,10.42,0,0,1-2.82-7.47,10.56,10.56,0,0,1,2.79-7.49,9.27,9.27,0,0,1,7.07-3,9.71,9.71,0,0,1,6.83,2.65q2.85,2.66,2.85,7.78t-2.85,7.8a9.65,9.65,0,0,1-6.83,2.68m9.85-24.33v4.45a11.52,11.52,0,0,0-4.41-3.7,13.42,13.42,0,0,0-6.07-1.37,12.88,12.88,0,0,0-9.83,4.16,14.49,14.49,0,0,0-3.9,10.31A14.56,14.56,0,0,0,154.06,38a12.92,12.92,0,0,0,9.83,4.16,14.14,14.14,0,0,0,5.81-1.22,11.4,11.4,0,0,0,4.44-3.45v14.3h4.39v-38Zm-31.84,0h-4.39V41.53h4.39ZM140.36,0A3.22,3.22,0,0,0,138,.94a3,3,0,0,0-1,2.25,3,3,0,0,0,1,2.28,3.31,3.31,0,0,0,2.33.91,3.2,3.2,0,0,0,2.31-.91,3,3,0,0,0,.94-2.28,3,3,0,0,0-1-2.25A3.13,3.13,0,0,0,140.36,0M118.55,13.16A10.58,10.58,0,0,0,110,16.8v-3h-4.1V41.53h4.39V24.61a7.26,7.26,0,0,1,2-5.33,7,7,0,0,1,5.24-2.08,6.46,6.46,0,0,1,5,2.05,7.71,7.71,0,0,1,1.85,5.36V41.53h4.39V24.09a11.3,11.3,0,0,0-2.74-7.91,9.66,9.66,0,0,0-7.57-3M96.62,3.93H92.18v23q0,5.46-2.91,8.31a10.28,10.28,0,0,1-7.52,2.85,10.44,10.44,0,0,1-7.6-2.85q-2.94-2.85-2.94-8.31v-23H66.77V26.6q0,7.35,4.16,11.45a14.76,14.76,0,0,0,10.82,4.1A14.56,14.56,0,0,0,92.46,38q4.16-4.12,4.16-11.42ZM49.15,2.66a8.27,8.27,0,0,1,6.19,2.56,8.78,8.78,0,0,1,2.48,6.34A8.84,8.84,0,0,1,55.34,18a8.81,8.81,0,0,1-12.42,0,8.83,8.83,0,0,1-2.47-6.41A8.77,8.77,0,0,1,42.92,5.2a8.35,8.35,0,0,1,6.23-2.54m0-2.39a11,11,0,0,0-8.06,3.27,10.91,10.91,0,0,0-3.3,8.06A11.2,11.2,0,0,0,49.12,22.92a11.05,11.05,0,0,0,8.06-3.27,10.84,10.84,0,0,0,3.32-8,10.85,10.85,0,0,0-3.32-8.06A11.05,11.05,0,0,0,49.12.27M21.62,3h5a4.5,4.5,0,0,1,3.26,1.13A3.91,3.91,0,0,1,31.05,7,3.86,3.86,0,0,1,29.9,9.94,4.53,4.53,0,0,1,26.63,11h-5Zm14.51,19.6-7-9.5a6.39,6.39,0,0,0,3.35-2.24A6.17,6.17,0,0,0,33.74,7a6,6,0,0,0-1.91-4.56A7.16,7.16,0,0,0,26.73.64H19V22.56h2.59v-9.2H26.3l6.81,9.2ZM7.64,3a4.45,4.45,0,0,1,3.24,1.13A3.93,3.93,0,0,1,12,7,3.92,3.92,0,0,1,10.88,10a4.49,4.49,0,0,1-3.24,1.11h-5V3ZM7.7.64H0V22.56H2.59V13.39H7.7a7.16,7.16,0,0,0,5.1-1.79A6,6,0,0,0,14.71,7,5.91,5.91,0,0,0,12.8,2.42,7.16,7.16,0,0,0,7.7.64"/></g></g></svg>