<svg width="135" height="136" viewBox="0 0 135 136" fill="none" xmlns="http://www.w3.org/2000/svg">
<g clip-path="url(#clip0_51_72)">
<path d="M24.7001 133.7C23.6001 133.7 22.6001 132.8 22.6001 131.6V119.3C22.6001 118.2 23.5001 117.2 24.7001 117.2C25.9001 117.2 26.8001 118.1 26.8001 119.3V131.6C26.8001 132.8 25.8001 133.7 24.7001 133.7Z" fill="#333739"/>
<path d="M109.3 133.7C108.2 133.7 107.2 132.8 107.2 131.6V119.3C107.2 118.2 108.1 117.2 109.3 117.2C110.5 117.2 111.4 118.1 111.4 119.3V131.6C111.4 132.8 110.4 133.7 109.3 133.7Z" fill="#333739"/>
<path d="M60.8999 130.7H60.7999C59.6999 130.6 58.7999 129.6 58.8999 128.5C59.7999 115.1 60.4999 109.3 60.7999 106.8C60.8999 106.1 60.9999 105.5 60.9999 105.3C60.9999 105.2 60.9999 105.1 60.9999 105C60.8999 104.8 59.9999 104 59.6999 103.7C58.8999 102.9 58.7999 101.6 59.5999 100.8C60.3999 100 61.6999 99.9 62.4999 100.7C64.2999 102.4 65.0999 103.2 65.0999 105.3C65.0999 105.7 64.9999 106.3 64.8999 107.3C64.5999 109.7 63.8999 115.5 62.9999 128.7C62.7999 129.8 61.8999 130.7 60.8999 130.7Z" fill="#333739"/>
<path d="M73.3001 130.7C72.2001 130.7 71.3001 129.9 71.2001 128.8C70.3001 115.5 69.6001 109.8 69.3001 107.4C69.2001 106.3 69.1001 105.8 69.1001 105.4C69.1001 103.3 69.9001 102.5 71.7001 100.8C72.5001 99.9999 73.8001 100.1 74.6001 100.9C75.4001 101.7 75.3001 103 74.5001 103.8C74.2001 104.1 73.3001 104.9 73.2001 105.2C73.2001 105.2 73.2001 105.3 73.2001 105.5C73.2001 105.7 73.3001 106.3 73.4001 107C73.7001 109.5 74.4001 115.3 75.3001 128.7C75.4001 129.8 74.5001 130.8 73.4001 130.9C73.3001 130.7 73.3001 130.7 73.3001 130.7Z" fill="#333739"/>
<path d="M48.5001 80.5C48.5001 80.5 48.6001 82.8 50.5001 84.7C54.3001 88.8 61.6 88.8 61.6 88.8C61.6 88.8 57.3001 90.2 56.7001 93.5C56.0001 97.7 53.8001 99.6 53.8001 99.6C53.8001 99.6 52.7001 97.9 48.0001 94.1C44.1001 90.9 46.0001 87.3 46.0001 87.3L48.5001 80.5ZM48.5001 76.4C46.8001 76.4 45.2001 77.5 44.6001 79.1L42.2001 85.7C41.1001 88.2 40.5001 93.3 45.4001 97.3C48.9001 100.1 50.1001 101.6 50.4001 101.9C51.0001 102.9 52.0001 103.6 53.2001 103.8C53.4001 103.8 53.6001 103.8 53.8001 103.8C54.8001 103.8 55.8001 103.4 56.6001 102.7C57.1001 102.2 59.9001 99.6 60.8001 94.2C60.9001 93.8 62.0001 93 62.9001 92.7C64.8001 92.1 66 90.2 65.7 88.1C65.4 86.1 63.6 84.6 61.6 84.6C60.1 84.6 55.6001 84.1 53.5001 81.8C52.8001 81.1 52.7001 80.2 52.7001 80.2C52.6001 78.2 51.1001 76.6 49.2001 76.3C48.9001 76.4 48.7001 76.4 48.5001 76.4Z" fill="#333739"/>
<path d="M85.6001 80.5L88.0001 87.3C88.0001 87.3 89.9001 91 86.0001 94.1C81.4001 97.9 80.2001 99.6 80.2001 99.6C80.2001 99.6 78.0001 97.7 77.3001 93.5C76.7001 90.1 72.4001 88.8 72.4001 88.8C72.4001 88.8 79.7001 88.8 83.5001 84.7C85.5001 82.8 85.6001 80.5 85.6001 80.5ZM85.5001 76.2C85.3001 76.2 85.0001 76.2 84.8001 76.3C82.8001 76.7 81.4001 78.2 81.4001 80.2C81.4001 80.4 81.2001 81.2 80.6001 81.8C78.5001 84 74.0001 84.6 72.5001 84.6C70.5001 84.6 68.7001 86.1 68.4001 88.1C68.1001 90.1 69.3001 92.1 71.2001 92.7C72.1001 93 73.2001 93.8 73.2001 94.2C74.1001 99.6 77.1001 102.4 77.4001 102.7C78.2001 103.4 79.1001 103.8 80.2001 103.8C80.4001 103.8 80.6001 103.8 80.8001 103.8C82.0001 103.6 83.0001 103 83.6001 101.9C83.8001 101.6 85.1001 100.1 88.5001 97.3C93.4001 93.3 92.8001 88.1 91.7001 85.7L89.3001 79.1C88.9001 77.4 87.3001 76.2 85.5001 76.2Z" fill="#333739"/>
<path d="M89.9 60.7999C89.4 60.7999 88.8 60.6 88.4 60.2C87.6 59.4 87.6 58.0999 88.4 57.2999C89.3 56.3999 90.3 55.7 91.4 55.4C92.2 54 93.3 48.2 93.3 44C93.3 41.8 92.8 40.4 92.4 39.7C92.4 39.7 92.3 39.8 92.3 39.9C90.8 43 90 44.5999 88 44.0999C86.1 43.5999 86.0999 41.7 86.0999 39.2V33.5999C83.4999 34.8999 79.4 36.2 73.5 36.2C67.2 36.2 63.3999 34.4 60.2999 32.9C57.8999 31.8 56 30.9 53.5 30.9C48.6 30.9 47.7999 32.6 47.7999 37.7C47.7999 42 47.8 43.4 45.9 43.9C44 44.3 43.4 43 41.7 39.7C41.7 39.6 41.5999 39.6 41.5999 39.5C41.1999 40.2 40.7999 41.5999 40.7999 43.7999C40.7999 47.9999 41.9 53.8 42.7 55.2C43.7 55.5 44.7 56.1999 45.7 57.0999C46.5 57.8999 46.5 59.2 45.7 60C44.9 60.8 43.5999 60.8 42.7999 60C42.2999 59.5 41.6999 59.1 41.2999 59C36.8999 57.9 36.7 43.9 36.7 43.7C36.7 39.1 38.4 35.6 40.9 35C41.5 34.9 42.6 34.7999 43.7 35.5999C43.9 31.7999 45.3 26.7 53.5 26.7C57 26.7 59.5999 27.9 62.0999 29.1C65.0999 30.5 68.1999 32 73.5999 32C82.9999 32 86.7 28.2999 86.8 28.2999C87.4 27.6999 88.2999 27.4999 89.0999 27.7999C89.8999 28.0999 90.4 28.9 90.4 29.7V35.7999C91.6 34.7999 92.8 34.8999 93.4 35.0999C95.9 35.6999 97.5999 39.1999 97.5999 43.7999C97.5999 43.8999 97.4 57.9999 93 59.0999C92.5 59.1999 92 59.5999 91.5 60.0999C91 60.5999 90.4 60.7999 89.9 60.7999Z" fill="#333739"/>
<path d="M88.4999 44.2C86.0999 44.2 86.0999 41.7 86.0999 39.3V33.7C83.4999 35 79.3999 36.3 73.4999 36.3C67.1999 36.3 63.3999 34.5 60.2999 33C57.8999 31.9 55.9999 31 53.4999 31C48.5999 31 47.7999 32.7 47.7999 37.8C47.7999 39.2 47.7999 40.3 47.7999 41C47.6999 43.5 46.3999 44 45.4999 44C43.8999 44 43.3999 43 41.7999 39.8C41.6999 39.6 41.5999 39.5 41.5999 39.4C41.1999 39.6 40.6999 39.6 40.1999 39.4C39.5999 39.2 39.0999 38.7 38.8999 38C37.9999 35 37.5999 31.4 37.5999 26.9C37.4999 12.1 50.7999 0 67.0999 0C73.4999 0 77.9999 1.6 80.2999 4.8C81.0999 4.6 81.7999 4.5 82.5999 4.5C92.0999 4.5 96.5999 17.8 96.5999 26.8C96.5999 31.4 96.1999 34.9 95.2999 37.9C95.0999 38.6 94.5999 39.1 93.9999 39.3C93.4999 39.5 92.9999 39.4 92.5999 39.3C92.4999 39.4 92.4999 39.5 92.3999 39.7C90.8999 42.8 90.1999 44.2 88.4999 44.2ZM88.1999 27.8C88.4999 27.8 88.6999 27.8 88.9999 28C89.7999 28.3 90.2999 29.1 90.2999 29.9V36C90.7999 35.6 91.3999 35.4 91.7999 35.3C92.2999 33 92.4999 30.3 92.4999 27C92.4999 19.6 88.9999 8.8 82.6999 8.8C81.8999 8.8 81.0999 9 80.1999 9.3C79.1999 9.7 78.0999 9.2 77.5999 8.2C76.3999 5.5 72.8999 4.2 67.0999 4.2C53.0999 4.2 41.6999 14.4 41.6999 26.9C41.6999 30.2 41.8999 32.9 42.3999 35.2C42.7999 35.3 43.2999 35.5 43.7999 35.8C43.9999 32 45.3999 26.9 53.5999 26.9C57.0999 26.9 59.6999 28.1 62.1999 29.3C65.1999 30.7 68.2999 32.2 73.6999 32.2C82.9999 32.2 86.8999 28.5 86.8999 28.5C87.0999 28 87.5999 27.8 88.1999 27.8Z" fill="#333739"/>
<path d="M67.0999 136C26.1999 136 1.89995 130 1.59995 130C0.499949 129.7 -0.200051 128.6 0.0999489 127.5L3.99995 110.7C7.09995 97.4999 17.9999 93.8999 30.6999 89.6999C32.6999 88.9999 34.8 88.2999 36.9 87.5999C38 87.1999 39.2 87.7999 39.5 88.8999C39.9 89.9999 39.3 91.1999 38.2 91.4999C36 92.2999 33.8999 92.9999 31.8999 93.5999C19.4999 97.6999 10.4999 100.7 7.89995 111.6L4.49995 126.4C10.9999 127.8 33.2999 131.9 66.9999 131.9C100.8 131.9 123 127.8 129.5 126.4L126.1 111.6C123.6 100.7 114.6 97.6999 102.1 93.5999C99.9999 92.8999 97.8999 92.1999 95.7999 91.4999C94.6999 91.0999 94.1999 89.8999 94.4999 88.8999C94.8999 87.7999 96.0999 87.2999 97.0999 87.5999C99.1999 88.3999 101.3 88.9999 103.4 89.6999C116.1 93.8999 127 97.4999 130.1 110.7L134 127.5C134.3 128.6 133.6 129.7 132.5 130C132.3 130 107.9 136 67.0999 136Z" fill="#333739"/>
<path d="M67.1001 83.3001C60.6001 83.3001 50.1001 79.5 47.5001 69.1C46.7001 66 46.6001 57.7 46.6001 56.6C46.6001 54.5 46.8001 51.5 48.9001 50.1C51.0001 48.7 53.5001 49.6 55.8001 50.5C57.0001 51 58.4001 51.5001 59.1001 51.4001C60.5001 51.1001 61.4001 50.3 62.4001 49.5C63.6001 48.4 65.1001 47.3 67.2001 47.3C68.3001 47.3 69.3001 48.2001 69.3001 49.4001C69.3001 50.5001 68.4001 51.5 67.2001 51.5C66.6001 51.5 66.0001 51.9 65.0001 52.8C63.8001 53.8 62.3001 55.1 59.9001 55.6C58.0001 56 56.0001 55.2 54.2001 54.6C53.3001 54.3 51.6001 53.6 51.2001 53.8C51.2001 53.8 50.7001 54.3001 50.7001 56.9001C50.7001 58.9001 50.9001 66.1001 51.5001 68.4001C53.5001 76.5001 62.0001 79.4001 67.1001 79.4001C68.2001 79.4001 69.2001 80.3 69.2001 81.5C69.1001 82.4 68.2001 83.3001 67.1001 83.3001Z" fill="#D61F74"/>
<path d="M67.1001 83.3C66.0001 83.3 65.0001 82.4 65.0001 81.2C65.0001 80.1 65.9001 79.1 67.1001 79.1C72.3001 79.1 80.7001 76.2 82.7001 68.1C83.3001 65.8 83.5001 58.5 83.5001 56.6C83.5001 54 83.0001 53.5 83.0001 53.5C82.6001 53.3 80.9001 54 80.0001 54.3C78.2001 55 76.2001 55.8 74.3001 55.3C71.9001 54.8 70.4001 53.5 69.2001 52.5C68.2001 51.7 67.7001 51.2 67.0001 51.2C65.9001 51.2 64.9001 50.3 64.9001 49.1C64.9001 48 65.8001 47 67.0001 47C69.2001 47 70.6001 48.2 71.8001 49.2C72.8001 50 73.7001 50.8 75.1001 51.1C75.8001 51.3 77.2001 50.7 78.4001 50.2C80.6001 49.3 83.1001 48.4 85.2001 49.8C87.3001 51.2 87.5001 54.2 87.5001 56.3C87.5001 57.4 87.3001 65.8 86.6001 68.8C84.1001 79.5 73.5001 83.3 67.1001 83.3Z" fill="#D61F74"/>
<path d="M67.1 75.2C63.8 75.2 60.4 74.8 57.2 73.9C56.1 73.6 55.4 72.5 55.7 71.4C56 70.3 57.1 69.6 58.2 69.9C64 71.4 70.1 71.4 76 69.9C77.1 69.6 78.2 70.3 78.5 71.4C78.8 72.5 78.1 73.6 77 73.9C73.7 74.8 70.4 75.2 67.1 75.2Z" fill="#D61F74"/>
<path d="M67.1002 69.1C62.5002 69.1 57.9002 68.3 53.4002 66.8C52.3002 66.4 51.7002 65.3 52.1002 64.2C52.5002 63.1 53.6002 62.5 54.7002 62.9C62.8002 65.6 71.3002 65.7 79.4002 62.9C80.5002 62.5 81.7002 63.1 82.0002 64.2C82.4002 65.3 81.8002 66.5 80.7002 66.8C76.2002 68.3 71.7002 69.1 67.1002 69.1Z" fill="#D61F74"/>
<path d="M67.1002 62.9C62.5002 62.9 57.9002 62.1 53.4002 60.6C52.3002 60.2 51.7002 59.1 52.1002 58C52.5002 56.9 53.6002 56.3 54.7002 56.7C62.7002 59.5 71.3002 59.5 79.4002 56.7C80.5002 56.3 81.7002 56.9 82.0002 58C82.4002 59.1 81.8002 60.3 80.7002 60.6C76.3002 62.2 71.7002 62.9 67.1002 62.9Z" fill="#D61F74"/>
</g>
<defs>
<clipPath id="clip0_51_72">
<rect width="134.1" height="136" fill="white"/>
</clipPath>
</defs>
</svg>
