<svg width="25" height="18" viewBox="0 0 25 18" fill="none" xmlns="http://www.w3.org/2000/svg">
<path d="M16.6999 9C16.6999 11.4 14.6999 13.4 12.2999 13.4C9.8999 13.4 7.8999 11.4 7.8999 9C7.8999 6.6 9.8999 4.6 12.2999 4.6C14.6999 4.6 16.6999 6.5 16.6999 9Z" fill="white"/>
<path d="M7.4 2.8C7.2 2.6 7 2.5 6.7 2.5C6.5 2.5 6.2 2.6 6.1 2.8C4.5 4.4 3.5 6.6 3.5 9C3.5 11.4 4.4 13.6 6.1 15.2C6.3 15.4 6.5 15.5 6.7 15.5C6.9 15.5 7.2 15.4 7.3 15.2C7.5 15 7.6 14.8 7.6 14.6C7.6 14.4 7.5 14.1 7.3 14C6 12.6 5.3 10.8 5.3 9C5.3 7.2 6 5.3 7.4 4C7.6 3.8 7.7 3.6 7.7 3.4C7.6 3.1 7.5 2.9 7.4 2.8Z" fill="white"/>
<path d="M18.6 2.8C18.4 2.6 18.2 2.5 18 2.5C17.8 2.5 17.5 2.6 17.4 2.8C17.2 3 17.1 3.2 17.1 3.4C17.1 3.6 17.2 3.9 17.4 4C18.7 5.3 19.5 7.1 19.5 9C19.5 10.9 18.8 12.7 17.4 14C17.2 14.2 17.1 14.4 17.1 14.6C17.1 14.8 17.2 15.1 17.4 15.2C17.6 15.4 17.8 15.5 18 15.5C18.2 15.5 18.5 15.4 18.6 15.2C20.3 13.5 21.2 11.3 21.2 9C21.2 6.7 20.2 4.4 18.6 2.8Z" fill="white"/>
<path d="M1.79995 9C1.79995 7.6 2.09995 6.2 2.59995 5C3.09995 3.8 3.89995 2.6 4.89995 1.6C5.09995 1.3 5.19995 1 5.09995 0.700002C4.99995 0.400002 4.79995 0.100002 4.49995 1.52737e-06C4.19995 -0.0999985 3.79995 1.51992e-06 3.59995 0.300002C2.09995 1.8 0.999951 3.7 0.399951 5.8C-0.200049 7.9 -0.200049 10.1 0.399951 12.2C0.999951 14.3 2.09995 16.2 3.59995 17.7C3.79995 17.9 3.99995 18 4.19995 18C4.39995 18 4.69995 17.9 4.79995 17.7C4.99995 17.5 5.09995 17.3 5.09995 17.1C5.09995 16.9 4.99995 16.6 4.79995 16.5C3.79995 15.5 2.99995 14.4 2.49995 13.1C1.99995 11.8 1.79995 10.4 1.79995 9Z" fill="white"/>
<path d="M21.1 0.300002C20.8 1.51992e-06 20.5 -0.0999985 20.2 1.52737e-06C19.9 0.100002 19.7 0.300002 19.6 0.600002C19.5 0.900002 19.6 1.2 19.8 1.5C21.1 2.8 22.1 4.5 22.5 6.2C23 8 23 9.9 22.5 11.7C22 13.5 21.1 15.1 19.8 16.4C19.6 16.6 19.5 16.8 19.5 17C19.5 17.2 19.6 17.5 19.8 17.6C20 17.8 20.2 17.9 20.4 17.9C20.6 17.9 20.9 17.8 21 17.6C22.5 16.1 23.6 14.2 24.2 12.1C24.8 10 24.8 7.8 24.2 5.7C23.7 3.7 22.6 1.8 21.1 0.300002Z" fill="white"/>
</svg>
