<svg width="119" height="40" viewBox="0 0 119 40" fill="none" xmlns="http://www.w3.org/2000/svg">
<path fill-rule="evenodd" clip-rule="evenodd" d="M8.35876 22.4546H11.8641V40.0001H8.35876V22.4546ZM16.6276 22.4546H20.1329V40.0001H16.6276V22.4546ZM12.4932 18.9092H15.9985V40.0001H12.4932V18.9092Z" fill="#C7CACB"/>
<path fill-rule="evenodd" clip-rule="evenodd" d="M24.9864 11.9091H28.4917V20.3636L25.0763 23.8182V11.9091H24.9864ZM0 11.9091H3.50529V23.8182L0 20.3636V11.9091ZM4.13444 7.72727H7.63973V28.0909L4.13444 24.5455V7.72727ZM11.7742 21.7273H8.35876V3.54545H11.864V21.7273H11.7742ZM12.4932 0H15.9985V18.2727H12.4932V0ZM20.1329 21.7273H16.6276V3.54545H20.1329V21.7273ZM20.852 7.72727H24.2674V24.5455L20.7621 28.0909V7.72727H20.852Z" fill="#C7CACB"/>
<path d="M45.9282 39.3635C45.4789 39.8181 44.6699 39.9999 43.5015 39.9999H39.6367C38.4683 39.9999 37.6594 39.8181 37.21 39.3635C36.7606 38.909 36.4909 38.2726 36.4909 37.4545V33.6363C36.4909 32.7272 36.7606 32.1817 37.21 31.7272C37.6594 31.2726 38.4683 31.0908 39.6367 31.0908H43.5015C44.6699 31.0908 45.4789 31.2726 45.9282 31.7272C46.3776 32.1817 46.5574 32.8181 46.5574 33.6363V37.4545C46.5574 38.2726 46.2878 38.909 45.9282 39.3635ZM43.861 34.5454C43.861 34.0908 43.7712 33.7272 43.5914 33.4545C43.4116 33.2726 42.9622 33.0908 42.2432 33.0908H40.8051C40.176 33.0908 39.7266 33.1817 39.5468 33.4545C39.3671 33.7272 39.1873 34.0908 39.1873 34.4545V36.4545C39.1873 36.909 39.2772 37.2726 39.5468 37.5454C39.7266 37.8181 40.176 37.909 40.8051 37.909H42.2432C42.9622 37.909 43.4116 37.8181 43.5914 37.5454C43.7712 37.3635 43.861 36.9999 43.861 36.4545V34.5454Z" fill="#C7CACB"/>
<path d="M57.4328 39.3635C56.9834 39.8181 56.1745 39.9999 55.0061 39.9999H51.1413C49.9728 39.9999 49.1639 39.8181 48.7145 39.3635C48.2651 38.909 47.9955 38.2726 47.9955 37.4545V33.6363C47.9955 32.7272 48.1752 32.1817 48.7145 31.7272C49.1639 31.2726 49.9728 31.0908 51.1413 31.0908H55.0061C56.1745 31.0908 56.9834 31.2726 57.4328 31.7272C57.8822 32.1817 58.0619 32.8181 58.0619 33.6363V34.5454H55.4555C55.4555 34.0908 55.3656 33.7272 55.1858 33.4545C55.0061 33.2726 54.5567 33.0908 53.8376 33.0908H52.3996C51.7704 33.0908 51.321 33.1817 51.1413 33.4545C50.9615 33.7272 50.7817 34.0908 50.7817 34.4545V36.4545C50.7817 36.909 50.8716 37.2726 51.1413 37.5454C51.321 37.8181 51.7704 37.909 52.3996 37.909H53.8376C54.5567 37.909 55.0061 37.8181 55.1858 37.5454C55.3656 37.2726 55.4555 36.909 55.4555 36.4545H58.0619V37.3635C58.0619 38.2726 57.8822 38.909 57.4328 39.3635Z" fill="#C7CACB"/>
<path d="M62.2863 39.9999H59.6798L59.5899 37.4545V33.6363L59.6798 31.0908H62.2863V34.5454H66.96V31.0908H69.6563V33.6363V37.4545V39.9999H66.96V36.5454H62.2863V39.9999Z" fill="#C7CACB"/>
<path d="M74.5997 36.5454H73.8807C73.8807 36.9999 73.9705 37.3635 74.2402 37.6363C74.4199 37.909 74.8693 37.9999 75.4985 37.9999H76.9366H81.2508V39.9999H78.1949H74.3301C73.1616 39.9999 72.3527 39.8181 71.9033 39.3635C71.4539 38.909 71.2742 38.2726 71.2742 37.4545V33.6363C71.2742 32.8181 71.5438 32.1817 71.9033 31.7272C72.3527 31.2726 73.1616 31.0908 74.3301 31.0908H78.1949H81.2508V33.0908H76.9366H75.4985C74.8693 33.0908 74.4199 33.1817 74.2402 33.4545C74.0604 33.7272 73.8807 33.9999 73.8807 34.4545H74.5997H81.2508V36.4545H74.5997V36.5454Z" fill="#C7CACB"/>
<path d="M101.474 33.0908H97.8784V31.0908H100.844H104.709H107.855V33.0908H104.08V39.9999H101.474V33.0908Z" fill="#C7CACB"/>
<path d="M95.5416 32.7272H91.497V31.0908H88.8905V32.7272H84.7561C84.7561 32.7272 82.4192 32.8181 82.4192 35.5454C82.4192 38.2726 84.8459 38.2726 84.8459 38.2726H88.9804V39.9999H91.5869V38.2726H95.6314C95.6314 38.2726 98.0582 38.2726 98.0582 35.5454C97.8784 32.8181 95.5416 32.7272 95.5416 32.7272ZM94.1035 36.4545H91.4071V34.5454H94.1035C94.1035 34.5454 95.0023 34.4545 95.0023 35.5454C95.0023 36.5454 94.1035 36.4545 94.1035 36.4545ZM85.2953 35.5454C85.2953 34.4545 86.1941 34.5454 86.1941 34.5454H88.8905V36.4545H86.1941C86.1941 36.4545 85.2953 36.5454 85.2953 35.5454Z" fill="#C7CACB"/>
<path d="M34.3338 31.7272C33.8844 31.2726 33.0755 31.0908 31.9071 31.0908H24.9864V39.9999H27.5929V36.909H31.9071C33.0755 36.909 33.8844 36.7272 34.3338 36.2726C34.7832 35.8181 34.963 35.1817 34.963 34.3635V33.6363C34.963 32.8181 34.7832 32.1817 34.3338 31.7272ZM31.4577 34.909H27.5929V33.0908H31.4577C31.9071 33.0908 32.3565 33.4545 32.3565 33.9999C32.3565 34.5454 31.997 34.909 31.4577 34.909Z" fill="#C7CACB"/>
<path d="M119 37.4545V36.7272C119 35.909 118.82 35.2726 118.371 34.8181C117.921 34.3635 117.113 34.1817 115.944 34.1817H111.63V31.0908H109.023V39.9999H115.944C117.113 39.9999 117.921 39.8181 118.371 39.3635C118.82 38.909 119 38.2726 119 37.4545ZM116.394 37.0908C116.394 37.5454 116.034 37.9999 115.495 37.9999H111.63V36.1817H115.495C116.034 36.1817 116.394 36.6363 116.394 37.0908Z" fill="#C7CACB"/>
</svg>
