<svg width="89" height="139" viewBox="0 0 89 139" fill="none" xmlns="http://www.w3.org/2000/svg">
<g clip-path="url(#clip0_51_52)">
<path d="M55.7999 105.1L57.3999 118C57.5999 119.2 58.5999 120.2 59.8999 120.2C61.1999 120.2 62.1999 119.3 62.3999 118C62.9999 113.3 63.6999 107.4 63.9999 105.1C64.0999 104.4 63.8999 103.7 63.3999 103.1C62.8999 102.6 62.1999 102.3 61.4999 102.3H58.2999C57.5999 102.3 56.8999 102.6 56.3999 103.1C55.8999 103.7 55.6999 104.4 55.7999 105.1ZM59.8999 110.7L60.4999 105.7H59.2999L59.8999 110.7Z" fill="#D61F74"/>
<path d="M57.3999 104.9C57.3999 104.7 57.3999 104.4 57.5999 104.3C57.7999 104.1 57.9999 104 58.1999 104H61.3999C61.5999 104 61.8999 104.1 61.9999 104.3C62.1999 104.5 62.1999 104.7 62.1999 104.9C61.8999 107.1 61.1999 113.1 60.5999 117.8C60.4999 118.2 60.1999 118.5 59.7999 118.5C59.3999 118.5 58.9999 118.2 58.9999 117.8C58.4999 113.1 57.6999 107.2 57.3999 104.9Z" fill="#D61F74"/>
<path d="M59.9 121.9C58.3 121.9 57 123.2 57 124.8C57 126.4 58.3 127.7 59.9 127.7C61.5 127.7 62.8 126.4 62.8 124.8C62.8 123.2 61.5 121.9 59.9 121.9ZM59.9 125.2C59.7 125.2 59.5 125 59.5 124.8C59.5 124.6 59.7 124.4 59.9 124.4C60.1 124.4 60.3 124.6 60.3 124.8C60.3 125 60.1 125.2 59.9 125.2Z" fill="#D61F74"/>
<path d="M61.1001 124.8C61.1001 126.5 58.6001 126.5 58.6001 124.8C58.6001 123.1 61.1001 123.1 61.1001 124.8Z" fill="#D61F74"/>
<path d="M88.1 130C82.8 119.4 71.4 96.5 65.6 85C64.6 83 62.6 81.8 60.4 81.8C58.2 81.8 56.2 83 55.2 85C49.4 96.5 38 119.4 32.7 130C31.8 131.8 31.9 134 33 135.7C34.1 137.4 35.9 138.5 38 138.5H83C85 138.5 86.9 137.5 88 135.7C88.9 134 89 131.8 88.1 130ZM84.6 133.7C84.2 134.3 83.6 134.6 82.9 134.6H37.9C37.2 134.6 36.6 134.2 36.2 133.7C35.8 133.1 35.8 132.4 36.1 131.8L58.6 86.8C58.9 86.1 59.6 85.7 60.4 85.7C61.2 85.7 61.8 86.1 62.2 86.8L84.7 131.8C85 132.4 84.9 133.1 84.6 133.7Z" fill="#333739"/>
<path d="M39.4 101.6C39.8 102 40.3 102.3 40.9 102.3H41C41.6 102.3 42.1 102.1 42.5 101.7C43 101.3 43.2 100.8 43.2 100.2C43.2 99.6 43 99 42.6 98.6C40.4 96.1 37.7 94.3 34.6 93V10.4C34.6 7.6 33.5 5 31.6 3C29.6 1 27 0 24.3 0C21.5 0 18.9 1.1 17 3C15.1 4.9 14 7.6 14 10.3V94C14 95.2 15 96.2 16.2 96.2C17.2 96.2 18.1 95.5 18.4 94.5H18.5V10.4C18.5 8.8 19.1 7.3 20.2 6.2C21.3 5.1 22.8 4.5 24.4 4.5C26 4.5 27.5 5.1 28.6 6.2C29.7 7.3 30.3 8.8 30.3 10.4V94C30.3 94.2 30.4 94.3 30.5 94.4C30.5 94.7 30.4 95.1 30.5 95.4C30.8 95.9 31.2 96.3 31.8 96.5C34.7 97.6 37.3 99.3 39.4 101.6Z" fill="#333739"/>
<path d="M24.5 134.5C13.5 134.5 4.5 125.6 4.5 114.7C4.5 106 9.4 98.6999 16.9 96.0999C17.5 95.8999 17.9 95.4999 18.2 94.9999C18.5 94.4999 18.5 93.8999 18.3 93.2999C18.1 92.6999 17.7 92.2999 17.2 91.9999C16.7 91.6999 16.1 91.6999 15.5 91.8999C6 95.1999 0 104.1 0 114.7C0 128.1 11 139 24.5 139C25.7 139 26.7 138 26.7 136.8C26.7 135.6 25.7 134.5 24.5 134.5Z" fill="#333739"/>
<path d="M24.3001 19.3C23.1001 19.3 22.1001 20.3 22.1001 21.5V108.2C22.1001 109.4 23.1001 110.4 24.3001 110.4C25.5001 110.4 26.5001 109.4 26.5001 108.2V21.5C26.5001 20.3 25.5001 19.3 24.3001 19.3Z" fill="#D61F74"/>
<path d="M28.4001 125.8C26.9001 126.5 26.1001 126.6 24.3001 126.6C17.6001 126.6 12.1001 121.1 12.1001 114.4C12.1001 107.6 17.6001 102.2 24.3001 102.2C29.9001 102.2 34.3001 105.6 35.7001 110.8" fill="#D61F74"/>
<path d="M27.7 124.2C26.4 124.7 25.7 124.9 24.3 124.9C18.5 124.9 13.8 120.2 13.8 114.4C13.8 108.6 18.5 103.9 24.3 103.9C29.1 103.9 32.9 106.8 34.1 111.2C34.3 112.1 35.3 112.6 36.2 112.4C37.1 112.2 37.6 111.2 37.4 110.3C35.8 104.4 30.8 100.5 24.4 100.5C16.7 100.5 10.5 106.7 10.5 114.4C10.5 122.1 16.7 128.3 24.4 128.3C26.4 128.3 27.4 128.1 29.2 127.3C30.1 126.9 30.4 125.9 30.1 125.1C29.5 124.2 28.6 123.8 27.7 124.2Z" fill="#D61F74"/>
<path d="M34.1999 109.9L26.8999 125C26.4999 125.8 26.7999 126.8 27.6999 127.2C28.4999 127.6 29.4999 127.3 29.9999 126.4L37.2999 111.3C37.6999 110.5 37.3999 109.5 36.4999 109.1C35.5999 108.8 34.5999 109.1 34.1999 109.9Z" fill="#D61F74"/>
<path d="M7.99995 29.6001H3.89995C2.69995 29.6001 1.69995 30.6001 1.69995 31.8001C1.69995 33.0001 2.69995 34.0001 3.89995 34.0001H7.99995C9.19995 34.0001 10.2 33.0001 10.2 31.8001C10.2 30.6001 9.19995 29.6001 7.99995 29.6001Z" fill="#333739"/>
<path d="M7.99995 62.2H3.89995C2.69995 62.2 1.69995 63.2 1.69995 64.4C1.69995 65.6 2.69995 66.5999 3.89995 66.5999H7.99995C9.19995 66.5999 10.2 65.6 10.2 64.4C10.2 63.2 9.19995 62.2 7.99995 62.2Z" fill="#333739"/>
<path d="M7.99995 78.5H3.89995C2.69995 78.5 1.69995 79.5 1.69995 80.7C1.69995 81.9 2.69995 82.9 3.89995 82.9H7.99995C9.19995 82.9 10.2 81.9 10.2 80.7C10.2 79.5 9.19995 78.5 7.99995 78.5Z" fill="#333739"/>
<path d="M3.89995 17.7H7.99995C9.19995 17.7 10.2 16.7 10.2 15.5C10.2 14.3 9.19995 13.3 7.99995 13.3H3.89995C2.69995 13.3 1.69995 14.3 1.69995 15.5C1.69995 16.7 2.69995 17.7 3.89995 17.7Z" fill="#D61F74"/>
<path d="M7.99995 45.9001H3.89995C2.69995 45.9001 1.69995 46.9001 1.69995 48.1001C1.69995 49.3001 2.69995 50.3001 3.89995 50.3001H7.99995C9.19995 50.3001 10.2 49.3001 10.2 48.1001C10.2 46.9001 9.19995 45.9001 7.99995 45.9001Z" fill="#333739"/>
</g>
<defs>
<clipPath id="clip0_51_52">
<rect width="88.7" height="139" fill="white"/>
</clipPath>
</defs>
</svg>
