<svg xmlns="http://www.w3.org/2000/svg" xmlns:xlink="http://www.w3.org/1999/xlink"><symbol viewBox="0 0 448 512" id="instagram" xmlns="http://www.w3.org/2000/svg"><!--! Font Awesome Pro 6.1.1 by @fontawesome - https://fontawesome.com License - https://fontawesome.com/license (Commercial License) Copyright 2022 Fonticons, Inc.--><path d="M224.1 141c-63.6 0-114.9 51.3-114.9 114.9s51.3 114.9 114.9 114.9S339 319.5 339 255.9 287.7 141 224.1 141zm0 189.6c-41.1 0-74.7-33.5-74.7-74.7s33.5-74.7 74.7-74.7 74.7 33.5 74.7 74.7-33.6 74.7-74.7 74.7zm146.4-194.3c0 14.9-12 26.8-26.8 26.8-14.9 0-26.8-12-26.8-26.8s12-26.8 26.8-26.8 26.8 12 26.8 26.8zm76.1 27.2c-1.7-35.9-9.9-67.7-36.2-93.9-26.2-26.2-58-34.4-93.9-36.2-37-2.1-147.9-2.1-184.9 0-35.8 1.7-67.6 9.9-93.9 36.1s-34.4 58-36.2 93.9c-2.1 37-2.1 147.9 0 184.9 1.7 35.9 9.9 67.7 36.2 93.9s58 34.4 93.9 36.2c37 2.1 147.9 2.1 184.9 0 35.9-1.7 67.7-9.9 93.9-36.2 26.2-26.2 34.4-58 36.2-93.9 2.1-37 2.1-147.8 0-184.8zM398.8 388c-7.8 19.6-22.9 34.7-42.6 42.6-29.5 11.7-99.5 9-132.1 9s-102.7 2.6-132.1-9c-19.6-7.8-34.7-22.9-42.6-42.6-11.7-29.5-9-99.5-9-132.1s-2.6-102.7 9-132.1c7.8-19.6 22.9-34.7 42.6-42.6 29.5-11.7 99.5-9 132.1-9s102.7-2.6 132.1 9c19.6 7.8 34.7 22.9 42.6 42.6 11.7 29.5 9 99.5 9 132.1s2.7 102.7-9 132.1z"/></symbol><symbol viewBox="0 0 230.06 218.81" id="logo" xmlns="http://www.w3.org/2000/svg"><defs><style>.bcls-1,.bcls-2{fill:none;stroke-miterlimit:10;stroke-width:3px}.bcls-1{stroke:#c79a57}.bcls-2{stroke:#9c5c1f}</style></defs><g id="bСлой_2" data-name="Слой 2"><g id="bLayer_1" data-name="Layer 1"><path class="bcls-1" d="M122.39.91c1.39 5.64 4.41 40.31 8.53 74.32 26.83 12.13 53 25.46 61.85 35.22C215 135 199.62 169.28 218.35 202c-6.64-37.12 19.33-64.2 6.69-94.83C213.85 80.1 127.27 7.29 122.39.91m95.88 201.2c.27.42.53.86.79 1.3l-.57-1.15-.2-.15"/><path class="bcls-1" d="M60.38 44.87C64.11 50.5 83.17 92.52 101 127c2.85 0 5.68-.06 8.45-.06a280.81 280.81 0 0129.71 1.29c-3-13.5-5.84-33.11-8.24-52.95-32.92-14.93-66.83-28-70.54-30.41m140 140a76.53 76.53 0 0017.76 16.93c-4.61-7.27-10.83-12.54-17.76-16.93m18.09 17.25l.06.13c.34.26.67.53 1 .81l-1-.92h-.1"/><path class="bcls-2" d="M130.92 75.24c2.4 19.84 5.19 39.45 8.24 53 6.45.71 11.78 1.76 15.52 3.22 23.53 9.26 30 33.3 45.65 53.48 6.94 4.39 13.15 9.66 17.77 16.93l.26.18c-18.74-32.72-3.39-67-25.59-91.55-8.81-9.76-35-23.09-61.85-35.21m87.38 126.82l.18.15-.06-.12h-.12"/><path class="bcls-1" d="M101 127c-17.86.27-37 1.3-53.43 2.33-19 1.2-34.25 2.4-39.29 2.4-.59 0-1 0-1.33-.05 9.15 5.3 91.58 73.64 115.47 82.51a50 50 0 0017.58 3.12c12 0 23.33-4.05 34.57-8.1s22.37-8.09 34-8.09a47.11 47.11 0 019.65 1c-26.4-20.85-65.54-4.59-91.23-31.92-6.29-6.71-16-23.74-26-43.2m117.36 75l.17.16c.44.09.89.19 1.33.3zM218.25 202.08"/><path class="bcls-2" d="M109.45 126.9q-4.15 0-8.46.06c10.07 19.46 19.75 36.49 26 43.2 25.69 27.33 64.83 11.07 91.23 31.92l-.17-.26a76.78 76.78 0 01-17.77-16.93c-20-12.69-46.16-18.11-57.27-43.58a77.73 77.73 0 01-3.89-13.12 280.81 280.81 0 00-29.71-1.29M218.35 202l.07.14h.1z"/><path class="bcls-2" d="M139.16 128.19a78 78 0 003.89 13.12c11.11 25.47 37.23 30.88 57.27 43.58-15.66-20.18-22.11-44.22-45.64-53.47-3.73-1.48-9.07-2.52-15.52-3.23m78.93 73.63l.16.26h.14l-.08-.14-.26-.18"/></g></g></symbol><symbol viewBox="0 0 244.89 51.78" id="logo-text" xmlns="http://www.w3.org/2000/svg"><defs><style>.ccls-1{fill:#1a1a1a}</style></defs><g id="cСлой_2" data-name="Слой 2"><path class="ccls-1" d="M232.13 17.15a8.41 8.41 0 015.87 2.13 7.68 7.68 0 012.42 5.84h-17.58a9.77 9.77 0 013.25-5.78 9 9 0 016-2.19m12.76 8.54a12 12 0 00-3.62-9 12.38 12.38 0 00-9-3.53 13.5 13.5 0 00-10.08 4.21 14.2 14.2 0 00-4.1 10.31A13.9 13.9 0 00222.27 38a14.35 14.35 0 0010.48 4.16 14.66 14.66 0 0011.11-4.84l-2.56-3a11.76 11.76 0 01-8.49 3.76 10.06 10.06 0 01-6.92-2.51 9.76 9.76 0 01-3.22-6.57h21.87a15 15 0 00.35-3.3m-34.12-11.92h-4.39v17a7.21 7.21 0 01-2 5.33 6.88 6.88 0 01-5 2 6.94 6.94 0 01-7.18-7.35v-17h-4.33v16.71a11.13 11.13 0 0011.51 11.68 11.17 11.17 0 008.17-3.22 11.29 11.29 0 003.28-8.46zm-46.25 24.33a9.34 9.34 0 01-7-3 10.42 10.42 0 01-2.82-7.47 10.56 10.56 0 012.79-7.49 9.27 9.27 0 017.07-3 9.71 9.71 0 016.83 2.65q2.85 2.66 2.85 7.78t-2.85 7.8a9.65 9.65 0 01-6.83 2.68m9.85-24.33v4.45a11.52 11.52 0 00-4.41-3.7 13.42 13.42 0 00-6.07-1.37 12.88 12.88 0 00-9.83 4.16 14.49 14.49 0 00-3.9 10.31A14.56 14.56 0 00154.06 38a12.92 12.92 0 009.83 4.16 14.14 14.14 0 005.81-1.22 11.4 11.4 0 004.44-3.45v14.3h4.39v-38zm-31.84 0h-4.39v27.8h4.39zM140.36 0a3.22 3.22 0 00-2.36.94 3 3 0 00-1 2.25 3 3 0 001 2.28 3.31 3.31 0 002.33.91 3.2 3.2 0 002.31-.91 3 3 0 00.94-2.28 3 3 0 00-1-2.25 3.13 3.13 0 00-2.22-.94m-21.81 13.16A10.58 10.58 0 00110 16.8v-3h-4.1v27.73h4.39V24.61a7.26 7.26 0 012-5.33 7 7 0 015.24-2.08 6.46 6.46 0 015 2.05 7.71 7.71 0 011.85 5.36v16.92h4.39V24.09a11.3 11.3 0 00-2.74-7.91 9.66 9.66 0 00-7.57-3M96.62 3.93h-4.44v23q0 5.46-2.91 8.31a10.28 10.28 0 01-7.52 2.85 10.44 10.44 0 01-7.6-2.85q-2.94-2.85-2.94-8.31v-23h-4.44V26.6q0 7.35 4.16 11.45a14.76 14.76 0 0010.82 4.1A14.56 14.56 0 0092.46 38q4.16-4.12 4.16-11.42zM49.15 2.66a8.27 8.27 0 016.19 2.56 8.78 8.78 0 012.48 6.34A8.84 8.84 0 0155.34 18a8.81 8.81 0 01-12.42 0 8.83 8.83 0 01-2.47-6.41 8.77 8.77 0 012.47-6.39 8.35 8.35 0 016.23-2.54m0-2.39a11 11 0 00-8.06 3.27 10.91 10.91 0 00-3.3 8.06 11.2 11.2 0 0011.33 11.32 11.05 11.05 0 008.06-3.27 10.84 10.84 0 003.32-8 10.85 10.85 0 00-3.32-8.06A11.05 11.05 0 0049.12.27M21.62 3h5a4.5 4.5 0 013.26 1.13A3.91 3.91 0 0131.05 7a3.86 3.86 0 01-1.15 2.94A4.53 4.53 0 0126.63 11h-5zm14.51 19.6l-7-9.5a6.39 6.39 0 003.35-2.24A6.17 6.17 0 0033.74 7a6 6 0 00-1.91-4.56 7.16 7.16 0 00-5.1-1.8H19v21.92h2.59v-9.2h4.71l6.81 9.2zM7.64 3a4.45 4.45 0 013.24 1.13A3.93 3.93 0 0112 7a3.92 3.92 0 01-1.12 3 4.49 4.49 0 01-3.24 1.11h-5V3zM7.7.64H0v21.92h2.59v-9.17H7.7a7.16 7.16 0 005.1-1.79A6 6 0 0014.71 7a5.91 5.91 0 00-1.91-4.58A7.16 7.16 0 007.7.64" id="cLayer_1" data-name="Layer 1"/></g></symbol><symbol fill="none" viewBox="0 0 135 136" id="maska" xmlns="http://www.w3.org/2000/svg"><g clip-path="url(#dclip0_51_72)"><path d="M24.7 133.7c-1.1 0-2.1-.9-2.1-2.1v-12.3c0-1.1.9-2.1 2.1-2.1 1.2 0 2.1.9 2.1 2.1v12.3c0 1.2-1 2.1-2.1 2.1zM109.3 133.7c-1.1 0-2.1-.9-2.1-2.1v-12.3c0-1.1.9-2.1 2.1-2.1 1.2 0 2.1.9 2.1 2.1v12.3c0 1.2-1 2.1-2.1 2.1zM60.9 130.7h-.1c-1.1-.1-2-1.1-1.9-2.2.9-13.4 1.6-19.2 1.9-21.7.1-.7.2-1.3.2-1.5v-.3c-.1-.2-1-1-1.3-1.3-.8-.8-.9-2.1-.1-2.9.8-.8 2.1-.9 2.9-.1 1.8 1.7 2.6 2.5 2.6 4.6 0 .4-.1 1-.2 2-.3 2.4-1 8.2-1.9 21.4-.2 1.1-1.1 2-2.1 2zM73.3 130.7c-1.1 0-2-.8-2.1-1.9-.9-13.3-1.6-19-1.9-21.4-.1-1.1-.2-1.6-.2-2 0-2.1.8-2.9 2.6-4.6.8-.8 2.1-.7 2.9.1.8.8.7 2.1-.1 2.9-.3.3-1.2 1.1-1.3 1.4v.3c0 .2.1.8.2 1.5.3 2.5 1 8.3 1.9 21.7.1 1.1-.8 2.1-1.9 2.2l-.1-.2zM48.5 80.5s.1 2.3 2 4.2c3.8 4.1 11.1 4.1 11.1 4.1s-4.3 1.4-4.9 4.7c-.7 4.2-2.9 6.1-2.9 6.1s-1.1-1.7-5.8-5.5c-3.9-3.2-2-6.8-2-6.8l2.5-6.8zm0-4.1c-1.7 0-3.3 1.1-3.9 2.7l-2.4 6.6c-1.1 2.5-1.7 7.6 3.2 11.6 3.5 2.8 4.7 4.3 5 4.6.6 1 1.6 1.7 2.8 1.9h.6c1 0 2-.4 2.8-1.1.5-.5 3.3-3.1 4.2-8.5.1-.4 1.2-1.2 2.1-1.5 1.9-.6 3.1-2.5 2.8-4.6-.3-2-2.1-3.5-4.1-3.5-1.5 0-6-.5-8.1-2.8-.7-.7-.8-1.6-.8-1.6-.1-2-1.6-3.6-3.5-3.9-.3.1-.5.1-.7.1zM85.6 80.5l2.4 6.8s1.9 3.7-2 6.8c-4.6 3.8-5.8 5.5-5.8 5.5s-2.2-1.9-2.9-6.1c-.6-3.4-4.9-4.7-4.9-4.7s7.3 0 11.1-4.1c2-1.9 2.1-4.2 2.1-4.2zm-.1-4.3c-.2 0-.5 0-.7.1-2 .4-3.4 1.9-3.4 3.9 0 .2-.2 1-.8 1.6-2.1 2.2-6.6 2.8-8.1 2.8-2 0-3.8 1.5-4.1 3.5-.3 2 .9 4 2.8 4.6.9.3 2 1.1 2 1.5.9 5.4 3.9 8.2 4.2 8.5.8.7 1.7 1.1 2.8 1.1h.6c1.2-.2 2.2-.8 2.8-1.9.2-.3 1.5-1.8 4.9-4.6 4.9-4 4.3-9.2 3.2-11.6l-2.4-6.6c-.4-1.7-2-2.9-3.8-2.9zM89.9 60.8c-.5 0-1.1-.2-1.5-.6-.8-.8-.8-2.1 0-2.9.9-.9 1.9-1.6 3-1.9.8-1.4 1.9-7.2 1.9-11.4 0-2.2-.5-3.6-.9-4.3 0 0-.1.1-.1.2-1.5 3.1-2.3 4.7-4.3 4.2-1.9-.5-1.9-2.4-1.9-4.9v-5.6c-2.6 1.3-6.7 2.6-12.6 2.6-6.3 0-10.1-1.8-13.2-3.3-2.4-1.1-4.3-2-6.8-2-4.9 0-5.7 1.7-5.7 6.8 0 4.3 0 5.7-1.9 6.2-1.9.4-2.5-.9-4.2-4.2 0-.1-.1-.1-.1-.2-.4.7-.8 2.1-.8 4.3 0 4.2 1.1 10 1.9 11.4 1 .3 2 1 3 1.9.8.8.8 2.1 0 2.9-.8.8-2.1.8-2.9 0-.5-.5-1.1-.9-1.5-1-4.4-1.1-4.6-15.1-4.6-15.3 0-4.6 1.7-8.1 4.2-8.7.6-.1 1.7-.2 2.8.6.2-3.8 1.6-8.9 9.8-8.9 3.5 0 6.1 1.2 8.6 2.4 3 1.4 6.1 2.9 11.5 2.9 9.4 0 13.1-3.7 13.2-3.7.6-.6 1.5-.8 2.3-.5.8.3 1.3 1.1 1.3 1.9v6.1c1.2-1 2.4-.9 3-.7 2.5.6 4.2 4.1 4.2 8.7 0 .1-.2 14.2-4.6 15.3-.5.1-1 .5-1.5 1s-1.1.7-1.6.7z" fill="#333739"/><path d="M88.5 44.2c-2.4 0-2.4-2.5-2.4-4.9v-5.6c-2.6 1.3-6.7 2.6-12.6 2.6-6.3 0-10.1-1.8-13.2-3.3-2.4-1.1-4.3-2-6.8-2-4.9 0-5.7 1.7-5.7 6.8V41c-.1 2.5-1.4 3-2.3 3-1.6 0-2.1-1-3.7-4.2-.1-.2-.2-.3-.2-.4-.4.2-.9.2-1.4 0-.6-.2-1.1-.7-1.3-1.4-.9-3-1.3-6.6-1.3-11.1C37.5 12.1 50.8 0 67.1 0 73.5 0 78 1.6 80.3 4.8c.8-.2 1.5-.3 2.3-.3 9.5 0 14 13.3 14 22.3 0 4.6-.4 8.1-1.3 11.1-.2.7-.7 1.2-1.3 1.4-.5.2-1 .1-1.4 0-.1.1-.1.2-.2.4-1.5 3.1-2.2 4.5-3.9 4.5zm-.3-16.4c.3 0 .5 0 .8.2.8.3 1.3 1.1 1.3 1.9V36c.5-.4 1.1-.6 1.5-.7.5-2.3.7-5 .7-8.3 0-7.4-3.5-18.2-9.8-18.2-.8 0-1.6.2-2.5.5-1 .4-2.1-.1-2.6-1.1-1.2-2.7-4.7-4-10.5-4-14 0-25.4 10.2-25.4 22.7 0 3.3.2 6 .7 8.3.4.1.9.3 1.4.6.2-3.8 1.6-8.9 9.8-8.9 3.5 0 6.1 1.2 8.6 2.4 3 1.4 6.1 2.9 11.5 2.9 9.3 0 13.2-3.7 13.2-3.7.2-.5.7-.7 1.3-.7zM67.1 136c-40.9 0-65.2-6-65.5-6-1.1-.3-1.8-1.4-1.5-2.5L4 110.7c3.1-13.2 14-16.8 26.7-21 2-.7 4.1-1.4 6.2-2.1 1.1-.4 2.3.2 2.6 1.3.4 1.1-.2 2.3-1.3 2.6-2.2.8-4.3 1.5-6.3 2.1-12.4 4.1-21.4 7.1-24 18l-3.4 14.8c6.5 1.4 28.8 5.5 62.5 5.5 33.8 0 56-4.1 62.5-5.5l-3.4-14.8c-2.5-10.9-11.5-13.9-24-18l-6.3-2.1c-1.1-.4-1.6-1.6-1.3-2.6.4-1.1 1.6-1.6 2.6-1.3 2.1.8 4.2 1.4 6.3 2.1 12.7 4.2 23.6 7.8 26.7 21l3.9 16.8c.3 1.1-.4 2.2-1.5 2.5-.2 0-24.6 6-65.4 6z" fill="#333739"/><path d="M67.1 83.3c-6.5 0-17-3.8-19.6-14.2-.8-3.1-.9-11.4-.9-12.5 0-2.1.2-5.1 2.3-6.5 2.1-1.4 4.6-.5 6.9.4 1.2.5 2.6 1 3.3.9 1.4-.3 2.3-1.1 3.3-1.9 1.2-1.1 2.7-2.2 4.8-2.2 1.1 0 2.1.9 2.1 2.1 0 1.1-.9 2.1-2.1 2.1-.6 0-1.2.4-2.2 1.3-1.2 1-2.7 2.3-5.1 2.8-1.9.4-3.9-.4-5.7-1-.9-.3-2.6-1-3-.8 0 0-.5.5-.5 3.1 0 2 .2 9.2.8 11.5 2 8.1 10.5 11 15.6 11 1.1 0 2.1.9 2.1 2.1-.1.9-1 1.8-2.1 1.8z" fill="#D61F74"/><path d="M67.1 83.3c-1.1 0-2.1-.9-2.1-2.1 0-1.1.9-2.1 2.1-2.1 5.2 0 13.6-2.9 15.6-11 .6-2.3.8-9.6.8-11.5 0-2.6-.5-3.1-.5-3.1-.4-.2-2.1.5-3 .8-1.8.7-3.8 1.5-5.7 1-2.4-.5-3.9-1.8-5.1-2.8-1-.8-1.5-1.3-2.2-1.3-1.1 0-2.1-.9-2.1-2.1 0-1.1.9-2.1 2.1-2.1 2.2 0 3.6 1.2 4.8 2.2 1 .8 1.9 1.6 3.3 1.9.7.2 2.1-.4 3.3-.9 2.2-.9 4.7-1.8 6.8-.4 2.1 1.4 2.3 4.4 2.3 6.5 0 1.1-.2 9.5-.9 12.5-2.5 10.7-13.1 14.5-19.5 14.5z" fill="#D61F74"/><path d="M67.1 75.2c-3.3 0-6.7-.4-9.9-1.3-1.1-.3-1.8-1.4-1.5-2.5.3-1.1 1.4-1.8 2.5-1.5 5.8 1.5 11.9 1.5 17.8 0 1.1-.3 2.2.4 2.5 1.5.3 1.1-.4 2.2-1.5 2.5-3.3.9-6.6 1.3-9.9 1.3zM67.1 69.1c-4.6 0-9.2-.8-13.7-2.3-1.1-.4-1.7-1.5-1.3-2.6.4-1.1 1.5-1.7 2.6-1.3 8.1 2.7 16.6 2.8 24.7 0 1.1-.4 2.3.2 2.6 1.3.4 1.1-.2 2.3-1.3 2.6-4.5 1.5-9 2.3-13.6 2.3z" fill="#D61F74"/><path d="M67.1 62.9c-4.6 0-9.2-.8-13.7-2.3-1.1-.4-1.7-1.5-1.3-2.6.4-1.1 1.5-1.7 2.6-1.3 8 2.8 16.6 2.8 24.7 0 1.1-.4 2.3.2 2.6 1.3.4 1.1-.2 2.3-1.3 2.6-4.4 1.6-9 2.3-13.6 2.3z" fill="#D61F74"/></g><defs><clipPath id="dclip0_51_72"><path fill="#fff" d="M0 0h134.1v136H0z"/></clipPath></defs></symbol><symbol viewBox="0 0 512 512" id="phone" xmlns="http://www.w3.org/2000/svg"><!--! Font Awesome Pro 6.1.1 by @fontawesome - https://fontawesome.com License - https://fontawesome.com/license (Commercial License) Copyright 2022 Fonticons, Inc.--><path d="M511.2 387l-23.25 100.8c-3.266 14.25-15.79 24.22-30.46 24.22C205.2 512 0 306.8 0 54.5c0-14.66 9.969-27.2 24.22-30.45L125.02.8c14.68-3.402 29.68 4.218 35.78 18.12l46.52 108.5c5.438 12.78 1.77 27.67-8.98 36.45L144.5 207.1c33.98 69.22 90.26 125.5 159.5 159.5l44.08-53.8c8.688-10.78 23.69-14.51 36.47-8.975l108.5 46.51C506.1 357.2 514.6 372.4 511.2 387z"/></symbol><symbol viewBox="0 0 448 512" id="whatsapp" xmlns="http://www.w3.org/2000/svg"><!--! Font Awesome Pro 6.1.1 by @fontawesome - https://fontawesome.com License - https://fontawesome.com/license (Commercial License) Copyright 2022 Fonticons, Inc.--><path d="M380.9 97.1C339 55.1 283.2 32 223.9 32c-122.4 0-222 99.6-222 222 0 39.1 10.2 77.3 29.6 111L0 480l117.7-30.9c32.4 17.7 68.9 27 106.1 27h.1c122.3 0 224.1-99.6 224.1-222 0-59.3-25.2-115-67.1-157zm-157 341.6c-33.2 0-65.7-8.9-94-25.7l-6.7-4-69.8 18.3L72 359.2l-4.4-7c-18.5-29.4-28.2-63.3-28.2-98.2 0-101.7 82.8-184.5 184.6-184.5 49.3 0 95.6 19.2 130.4 54.1 34.8 34.9 56.2 81.2 56.1 130.5 0 101.8-84.9 184.6-186.6 184.6zm101.2-138.2c-5.5-2.8-32.8-16.2-37.9-18-5.1-1.9-8.8-2.8-12.5 2.8-3.7 5.6-14.3 18-17.6 21.8-3.2 3.7-6.5 4.2-12 1.4-32.6-16.3-54-29.1-75.5-66-5.7-9.8 5.7-9.1 16.3-30.3 1.8-3.7.9-6.9-.5-9.7-1.4-2.8-12.5-30.1-17.1-41.2-4.5-10.8-9.1-9.3-12.5-9.5-3.2-.2-6.9-.2-10.6-.2-3.7 0-9.7 1.4-14.8 6.9-5.1 5.6-19.4 19-19.4 46.3 0 27.3 19.9 53.7 22.6 57.4 2.8 3.7 39.1 59.7 94.8 83.8 35.2 15.2 49 16.5 66.6 13.9 10.7-1.6 32.8-13.4 37.4-26.4 4.6-13 4.6-24.1 3.2-26.4-1.3-2.5-5-3.9-10.5-6.6z"/></symbol></svg>